{"glyphs":{"0":{"ha":839,"x_min":68,"x_max":771,"o":"m 186 347 q 201 251 186 297 q 247 169 217 204 q 321 114 278 135 q 421 93 364 93 q 519 114 476 93 q 592 169 563 135 q 638 251 622 204 q 653 347 653 297 q 638 445 653 399 q 592 526 622 492 q 519 581 563 561 q 421 601 476 601 q 321 581 364 601 q 247 526 278 561 q 201 445 217 492 q 186 347 186 399 m 68 347 q 94 490 68 424 q 168 606 121 557 q 280 684 215 656 q 421 713 344 713 q 560 684 496 713 q 672 606 625 656 q 744 490 718 557 q 771 347 771 424 q 744 206 771 272 q 672 89 718 139 q 560 10 625 39 q 421 -18 496 -18 q 280 10 344 -18 q 168 89 215 39 q 94 206 121 139 q 68 347 68 272 z "},"1":{"ha":458,"x_min":29,"x_max":344,"o":"m 233 571 l 51 536 l 29 631 l 276 699 l 344 699 l 344 0 l 233 0 l 233 571 z "},"2":{"ha":675,"x_min":60,"x_max":608,"o":"m 60 53 q 264 229 174 143 q 340 304 303 265 q 406 381 376 343 q 452 452 435 418 q 469 514 469 486 q 441 587 469 558 q 329 615 413 615 q 246 608 286 615 q 174 594 206 601 q 101 574 136 585 l 68 663 q 150 688 104 676 q 238 705 188 697 q 346 713 289 713 q 435 703 392 713 q 513 673 479 694 q 567 615 547 651 q 588 524 588 579 q 574 456 588 492 q 538 385 560 421 q 488 315 517 350 q 431 247 460 279 q 275 99 363 172 q 344 101 308 100 q 417 103 376 103 q 503 104 458 104 l 608 104 l 608 0 l 60 0 l 60 53 z "},"3":{"ha":632,"x_min":28,"x_max":561,"o":"m 63 -128 q 113 -149 89 -140 q 160 -163 138 -158 q 208 -171 183 -168 q 260 -174 232 -174 q 329 -162 296 -174 q 388 -129 363 -151 q 428 -73 413 -107 q 443 7 443 -39 q 369 149 443 99 q 174 200 294 199 l 174 297 q 362 347 292 297 q 432 493 432 397 q 426 542 432 519 q 403 581 419 564 q 361 606 388 597 q 294 615 335 615 q 231 611 261 615 q 178 603 201 607 q 126 592 151 597 l 99 682 q 158 697 125 690 q 225 708 186 703 q 310 713 264 713 q 484 660 418 713 q 550 494 550 608 q 532 398 550 439 q 488 328 514 357 q 433 281 463 299 q 378 256 403 264 l 378 251 q 446 218 413 239 q 505 167 479 197 q 546 97 531 136 q 561 7 561 57 q 531 -128 561 -75 q 457 -214 501 -182 q 359 -258 413 -246 q 260 -271 306 -271 q 165 -263 207 -271 q 92 -246 122 -256 q 28 -221 56 -235 l 63 -128 z "},"4":{"ha":797,"x_min":22,"x_max":747,"o":"m 164 92 q 263 94 213 93 q 356 97 306 96 q 453 97 406 97 l 539 97 l 539 243 q 540 376 539 318 q 542 475 540 435 q 546 558 543 522 l 164 92 m 22 75 l 539 699 l 650 699 l 650 97 l 747 97 l 747 0 l 650 0 l 650 -271 l 539 -271 l 539 0 l 29 0 l 22 75 z "},"5":{"ha":685,"x_min":38,"x_max":626,"o":"m 150 699 l 590 699 l 590 601 l 253 601 l 228 292 q 260 299 243 296 q 297 305 276 303 q 343 307 318 307 q 550 238 474 307 q 626 29 626 168 q 599 -119 626 -61 q 525 -211 571 -178 q 422 -258 479 -244 q 304 -271 364 -271 q 38 -194 168 -268 l 75 -101 q 306 -174 208 -174 q 461 -122 414 -174 q 508 29 508 -69 q 499 103 508 69 q 468 160 489 136 q 413 197 447 183 q 331 210 379 210 q 267 205 297 210 q 210 193 236 200 q 161 176 185 186 l 107 185 l 150 699 z "},"6":{"ha":729,"x_min":71,"x_max":668,"o":"m 638 861 q 349 722 451 803 q 208 538 246 640 l 257 542 q 307 546 279 544 q 367 547 335 547 q 475 533 421 547 q 572 485 529 518 q 641 400 614 453 q 668 269 668 347 q 644 150 668 203 q 578 60 619 97 q 480 2 536 22 q 361 -18 424 -18 q 147 73 222 -18 q 71 372 71 164 q 97 547 71 469 q 165 685 122 625 q 262 791 207 746 q 376 869 317 836 q 494 924 435 901 q 603 960 553 946 l 638 861 m 369 79 q 435 89 403 79 q 494 121 468 99 q 535 178 519 143 q 550 267 550 214 q 500 403 550 357 q 350 450 450 450 q 290 449 318 450 q 194 440 261 447 q 189 360 188 376 q 236 147 193 214 q 369 79 279 79 z "},"7":{"ha":613,"x_min":42,"x_max":599,"o":"m 56 699 l 599 699 l 599 646 l 376 113 q 324 0 351 53 q 267 -101 297 -53 q 201 -196 236 -150 q 124 -287 165 -242 l 42 -214 q 123 -113 88 -161 q 187 -18 158 -65 q 239 77 215 29 q 283 176 263 125 l 460 601 l 56 601 l 56 699 z "},"8":{"ha":764,"x_min":83,"x_max":689,"o":"m 379 -18 q 265 -5 318 -18 q 171 39 211 8 q 107 119 131 69 q 83 240 83 168 q 101 333 83 292 q 145 405 119 374 q 201 459 171 436 q 257 499 232 482 q 151 585 190 535 q 111 708 111 636 q 136 820 111 772 q 201 899 161 868 q 289 944 240 929 q 386 960 338 960 q 498 942 447 960 q 585 892 549 925 q 641 813 621 860 q 661 708 661 767 q 649 640 661 672 q 619 578 638 607 q 576 524 600 549 q 526 478 551 499 q 586 442 557 461 q 638 395 615 422 q 675 330 661 368 q 689 240 689 292 q 663 117 689 167 q 594 38 638 68 q 495 -6 551 7 q 379 -18 439 -18 m 436 522 q 474 557 454 539 q 508 597 493 575 q 533 647 524 619 q 543 708 543 674 q 535 765 543 738 q 510 815 528 793 q 461 849 492 836 q 386 863 431 863 q 318 849 347 863 q 269 813 289 835 q 239 764 249 792 q 229 708 229 736 q 245 644 229 671 q 290 595 261 617 q 356 556 318 574 q 436 522 393 539 m 201 240 q 245 124 201 169 q 381 79 289 79 q 522 124 472 79 q 571 240 571 168 q 555 310 571 281 q 510 362 539 339 q 438 406 481 385 q 343 449 396 426 q 292 413 317 432 q 247 368 268 393 q 214 312 226 343 q 201 240 201 281 z "},"9":{"ha":713,"x_min":56,"x_max":653,"o":"m 86 -185 q 376 -33 272 -122 q 515 151 479 57 q 467 146 492 149 q 416 142 444 143 q 357 140 388 140 q 249 156 303 140 q 152 205 194 171 q 83 293 110 239 q 56 425 56 347 q 138 635 56 558 q 363 713 219 711 q 484 690 431 713 q 575 618 538 667 q 633 494 613 569 q 653 315 653 419 q 628 140 653 218 q 560 -1 603 61 q 463 -108 518 -62 q 349 -188 408 -154 q 231 -246 290 -222 q 119 -285 171 -269 l 86 -185 m 353 615 q 287 605 319 615 q 229 573 254 594 q 189 515 204 551 q 174 428 174 479 q 224 288 174 338 q 374 238 274 238 q 433 239 406 238 q 483 243 461 240 q 531 250 508 246 q 533 268 532 257 q 535 292 535 278 q 535 328 535 307 q 353 615 529 615 z "}," ":{"ha":318,"x_min":0,"x_max":0,"o":""},"Â":{"ha":847,"x_min":26,"x_max":821,"o":"m 351 947 l 496 947 l 821 0 l 700 0 l 617 253 l 232 253 l 147 0 l 26 0 l 351 947 m 579 364 l 426 836 l 422 836 l 268 364 l 579 364 m 396 1306 l 451 1306 l 639 1115 l 583 1069 l 424 1204 l 264 1069 l 208 1115 l 396 1306 z "},"Ä":{"ha":847,"x_min":26,"x_max":821,"o":"m 351 947 l 496 947 l 821 0 l 700 0 l 617 253 l 232 253 l 147 0 l 26 0 l 351 947 m 579 364 l 426 836 l 422 836 l 268 364 l 579 364 m 228 1144 q 249 1198 228 1176 q 303 1219 271 1219 q 359 1198 336 1219 q 382 1144 382 1176 q 359 1091 382 1113 q 303 1069 336 1069 q 249 1091 271 1069 q 228 1144 228 1113 m 465 1144 q 487 1198 465 1176 q 540 1219 508 1219 q 597 1198 574 1219 q 619 1144 619 1176 q 597 1091 619 1113 q 540 1069 574 1069 q 487 1091 508 1069 q 465 1144 465 1113 z "},"À":{"ha":847,"x_min":26,"x_max":821,"o":"m 351 947 l 496 947 l 821 0 l 700 0 l 617 253 l 232 253 l 147 0 l 26 0 l 351 947 m 579 364 l 426 836 l 422 836 l 268 364 l 579 364 m 206 1219 l 278 1304 l 517 1131 l 469 1068 l 206 1219 z "},"Å":{"ha":847,"x_min":26,"x_max":821,"o":"m 351 947 l 496 947 l 821 0 l 700 0 l 617 253 l 232 253 l 147 0 l 26 0 l 351 947 m 579 364 l 426 836 l 422 836 l 268 364 l 579 364 m 275 1149 q 286 1208 275 1181 q 317 1256 297 1236 q 364 1288 338 1276 q 422 1300 390 1300 q 532 1257 488 1300 q 576 1149 576 1214 q 565 1090 576 1117 q 532 1042 553 1063 q 483 1010 511 1022 q 422 999 454 999 q 364 1010 390 999 q 317 1042 338 1022 q 286 1090 297 1063 q 275 1149 275 1117 m 346 1149 q 369 1092 346 1115 q 425 1069 392 1069 q 482 1092 458 1069 q 506 1149 506 1115 q 482 1206 506 1182 q 425 1229 458 1229 q 369 1206 392 1229 q 346 1149 346 1182 z "},"Ã":{"ha":847,"x_min":26,"x_max":821,"o":"m 351 947 l 496 947 l 821 0 l 700 0 l 617 253 l 232 253 l 147 0 l 26 0 l 351 947 m 579 364 l 426 836 l 422 836 l 268 364 l 579 364 m 663 1150 q 590 1083 625 1103 q 519 1063 554 1063 q 458 1071 485 1063 q 408 1090 431 1079 q 366 1109 385 1100 q 331 1118 347 1118 q 282 1104 303 1118 q 243 1067 261 1090 l 171 1128 q 247 1192 207 1176 q 325 1208 288 1208 q 379 1199 354 1208 q 426 1180 404 1190 q 467 1161 449 1169 q 504 1153 486 1153 q 555 1170 536 1153 q 588 1207 574 1188 l 663 1150 z "},"B":{"ha":799,"x_min":122,"x_max":729,"o":"m 122 947 l 375 947 q 592 892 525 947 q 660 722 660 836 q 645 631 660 669 q 613 565 631 592 q 567 513 592 535 q 629 481 600 500 q 681 433 658 461 q 716 367 703 406 q 729 278 729 329 q 714 170 729 221 q 663 82 699 119 q 567 22 626 44 q 418 0 507 0 l 122 0 l 122 947 m 239 536 l 471 536 q 506 576 490 551 q 531 628 519 597 q 542 704 542 660 q 499 815 542 786 q 381 843 457 843 l 239 843 l 239 536 m 239 104 l 428 104 q 565 151 519 104 q 611 278 611 199 q 602 342 611 313 q 571 392 593 371 q 511 426 549 414 q 418 439 474 439 l 239 439 l 239 104 z "},"C":{"ha":843,"x_min":71,"x_max":797,"o":"m 767 814 q 693 834 732 825 q 608 849 654 843 q 510 856 561 856 q 368 819 426 856 q 273 727 310 783 q 219 601 236 671 q 203 464 203 532 q 227 308 203 378 q 294 188 251 238 q 392 113 336 139 q 511 86 449 86 q 618 92 569 86 q 701 106 667 99 q 774 125 742 114 l 797 26 q 714 4 760 14 q 624 -11 675 -4 q 511 -18 572 -18 q 319 18 401 -18 q 181 119 236 54 q 99 272 126 183 q 71 465 71 360 q 104 678 71 586 q 196 833 138 771 q 335 928 254 896 q 511 960 415 960 q 620 953 569 960 q 713 938 671 947 q 792 917 756 928 l 767 814 z "},"Ç":{"ha":843,"x_min":71,"x_max":797,"o":"m 767 814 q 693 834 732 825 q 608 849 654 843 q 510 856 561 856 q 368 819 426 856 q 273 727 310 783 q 219 601 236 671 q 203 464 203 532 q 227 308 203 378 q 294 188 251 238 q 392 113 336 139 q 511 86 449 86 q 618 92 569 86 q 701 106 667 99 q 774 125 742 114 l 797 26 q 714 4 760 14 q 624 -11 675 -4 q 511 -18 572 -18 q 319 18 401 -18 q 181 119 236 54 q 99 272 126 183 q 71 465 71 360 q 104 678 71 586 q 196 833 138 771 q 335 928 254 896 q 511 960 415 960 q 620 953 569 960 q 713 938 671 947 q 792 917 756 928 l 767 814 m 454 -82 l 564 -82 l 564 -115 q 560 -164 564 -140 q 547 -214 557 -187 q 516 -271 536 -240 q 461 -339 496 -301 l 382 -274 q 424 -221 408 -244 q 445 -178 439 -197 q 453 -144 451 -160 q 454 -115 454 -128 l 454 -82 z "},"D":{"ha":993,"x_min":122,"x_max":922,"o":"m 239 107 l 426 107 q 570 126 503 107 q 688 190 638 146 q 768 304 739 233 q 797 476 797 375 q 771 640 797 571 q 697 753 744 708 q 580 819 649 797 q 426 840 511 840 l 239 840 l 239 107 m 122 947 l 426 947 q 630 919 539 947 q 786 833 721 892 q 887 686 851 775 q 922 476 922 597 q 883 265 922 354 q 778 116 844 175 q 621 28 711 57 q 426 0 531 0 l 122 0 l 122 947 z "},"E":{"ha":783,"x_min":122,"x_max":717,"o":"m 122 947 l 703 947 l 703 840 l 239 840 l 239 538 l 669 538 l 669 433 l 239 433 l 239 107 l 717 107 l 717 0 l 122 0 l 122 947 z "},"É":{"ha":783,"x_min":122,"x_max":717,"o":"m 122 947 l 703 947 l 703 840 l 239 840 l 239 538 l 669 538 l 669 433 l 239 433 l 239 107 l 717 107 l 717 0 l 122 0 l 122 947 m 551 1304 l 624 1219 l 360 1068 l 313 1131 l 551 1304 z "},"Ê":{"ha":783,"x_min":122,"x_max":717,"o":"m 122 947 l 703 947 l 703 840 l 239 840 l 239 538 l 669 538 l 669 433 l 239 433 l 239 107 l 717 107 l 717 0 l 122 0 l 122 947 m 397 1304 l 453 1304 l 640 1114 l 585 1068 l 425 1203 l 265 1068 l 210 1114 l 397 1304 z "},"Ë":{"ha":783,"x_min":122,"x_max":717,"o":"m 122 947 l 703 947 l 703 840 l 239 840 l 239 538 l 669 538 l 669 433 l 239 433 l 239 107 l 717 107 l 717 0 l 122 0 l 122 947 m 232 1128 q 253 1181 232 1160 q 307 1203 275 1203 q 363 1181 340 1203 q 386 1128 386 1160 q 363 1074 386 1096 q 307 1053 340 1053 q 253 1074 275 1053 q 232 1128 232 1096 m 469 1128 q 491 1181 469 1160 q 544 1203 513 1203 q 601 1181 578 1203 q 624 1128 624 1160 q 601 1074 624 1096 q 544 1053 578 1053 q 491 1074 513 1053 q 469 1128 469 1096 z "},"È":{"ha":783,"x_min":122,"x_max":717,"o":"m 122 947 l 703 947 l 703 840 l 239 840 l 239 538 l 669 538 l 669 433 l 239 433 l 239 107 l 717 107 l 717 0 l 122 0 l 122 947 m 239 1218 l 311 1303 l 550 1129 l 503 1067 l 239 1218 z "},"Ð":{"ha":1046,"x_min":4,"x_max":975,"o":"m 175 433 l 4 433 l 4 544 l 175 544 l 175 947 l 479 947 q 683 919 592 947 q 839 833 774 892 q 940 686 904 775 q 975 476 975 597 q 936 265 975 354 q 831 116 897 175 q 674 28 764 57 q 479 0 583 0 l 175 0 l 175 433 m 292 544 l 511 544 l 511 433 l 292 433 l 292 107 l 479 107 q 623 126 556 107 q 741 190 690 146 q 821 304 792 233 q 850 476 850 375 q 824 640 850 571 q 749 753 797 708 q 633 819 701 797 q 479 840 564 840 l 292 840 l 292 544 z "},"€":{"ha":818,"x_min":64,"x_max":754,"o":"m 64 438 l 186 438 l 186 540 l 64 540 l 64 631 l 196 631 q 311 883 225 806 q 522 960 397 960 q 742 939 596 960 l 724 842 q 517 863 597 861 q 367 784 414 863 q 314 631 321 706 l 617 631 l 617 540 l 310 540 l 310 438 l 617 438 l 617 347 l 315 347 q 358 158 326 238 q 525 81 390 79 q 738 108 589 81 l 754 13 q 500 -17 593 -17 q 292 74 365 -22 q 196 347 219 169 l 64 347 l 64 438 z "},"F":{"ha":751,"x_min":122,"x_max":703,"o":"m 122 947 l 703 947 l 703 840 l 239 840 l 239 538 l 669 538 l 669 433 l 239 433 l 239 0 l 122 0 l 122 947 z "},"G":{"ha":961,"x_min":71,"x_max":876,"o":"m 843 814 q 713 838 782 826 q 554 851 644 849 q 396 824 463 850 q 287 748 329 797 q 224 631 244 699 q 203 481 203 563 q 230 300 203 375 q 305 177 257 225 q 417 107 353 129 q 554 85 481 85 q 640 90 601 85 q 706 103 678 96 q 758 121 735 111 l 758 375 l 585 375 l 585 479 l 876 479 l 876 64 q 742 6 828 32 q 554 -18 657 -19 q 373 4 460 -18 q 219 83 286 26 q 111 236 151 139 q 71 482 71 333 q 108 692 71 603 q 210 841 146 782 q 360 930 275 900 q 542 960 446 960 q 663 953 604 960 q 769 940 721 947 q 863 921 818 932 l 843 814 z "},"H":{"ha":957,"x_min":122,"x_max":835,"o":"m 122 947 l 239 947 l 239 538 l 718 538 l 718 947 l 835 947 l 835 0 l 718 0 l 718 433 l 239 433 l 239 0 l 122 0 l 122 947 z "},"I":{"ha":361,"x_min":122,"x_max":239,"o":"m 122 947 l 239 947 l 239 0 l 122 0 l 122 947 z "},"Í":{"ha":361,"x_min":74,"x_max":385,"o":"m 122 947 l 239 947 l 239 0 l 122 0 l 122 947 m 313 1303 l 385 1218 l 121 1067 l 74 1129 l 313 1303 z "},"Î":{"ha":361,"x_min":-35,"x_max":396,"o":"m 122 947 l 239 947 l 239 0 l 122 0 l 122 947 m 153 1304 l 208 1304 l 396 1114 l 340 1068 l 181 1203 l 21 1068 l -35 1114 l 153 1304 z "},"Ï":{"ha":361,"x_min":-15,"x_max":376,"o":"m 122 947 l 239 947 l 239 0 l 122 0 l 122 947 m -15 1128 q 6 1181 -15 1160 q 60 1203 28 1203 q 116 1181 93 1203 q 139 1128 139 1160 q 116 1074 139 1096 q 60 1053 93 1053 q 6 1074 28 1053 q -15 1128 -15 1096 m 222 1128 q 244 1181 222 1160 q 297 1203 265 1203 q 353 1181 331 1203 q 376 1128 376 1160 q 353 1074 376 1096 q 297 1053 331 1053 q 244 1074 265 1053 q 222 1128 222 1096 z "},"Ì":{"ha":361,"x_min":-18,"x_max":293,"o":"m 122 947 l 239 947 l 239 0 l 122 0 l 122 947 m -18 1218 l 54 1303 l 293 1129 l 246 1067 l -18 1218 m 122 947 l 239 947 l 239 0 l 122 0 l 122 947 m -18 1218 l 54 1303 l 293 1129 l 246 1067 l -18 1218 z "},"J":{"ha":451,"x_min":29,"x_max":335,"o":"m 335 947 l 335 296 q 320 156 335 214 q 261 64 306 99 q 178 16 229 39 q 44 -18 128 -7 l 29 81 q 133 109 94 92 q 190 151 171 126 q 213 213 208 176 q 218 297 218 249 l 218 947 l 335 947 z "},"K":{"ha":828,"x_min":122,"x_max":838,"o":"m 122 947 l 239 947 l 239 510 l 636 947 l 782 947 l 418 550 l 838 0 l 692 0 l 338 464 l 239 356 l 239 0 l 122 0 l 122 947 z "},"L":{"ha":693,"x_min":122,"x_max":669,"o":"m 122 947 l 239 947 l 239 111 l 669 111 l 669 0 l 122 0 l 122 947 z "},"Ł":{"ha":767,"x_min":-7,"x_max":743,"o":"m 311 947 l 311 613 l 474 690 l 517 594 l 311 497 l 311 111 l 743 111 l 743 0 l 196 0 l 196 446 l 36 371 l -7 467 l 196 561 l 196 947 l 311 947 z "},"M":{"ha":1192,"x_min":99,"x_max":1092,"o":"m 149 947 l 297 947 l 511 383 q 544 294 529 335 q 571 221 560 253 q 594 154 585 185 l 597 154 q 618 221 606 185 q 643 294 629 253 q 676 383 657 335 l 894 947 l 1043 947 l 1092 0 l 974 0 l 950 521 q 946 636 947 589 q 944 714 944 683 l 944 772 l 942 772 q 921 715 933 751 q 892 637 910 685 q 850 521 875 589 l 654 0 l 536 0 l 339 521 q 296 635 313 588 q 268 714 279 683 q 249 772 256 750 l 246 772 q 249 714 247 750 q 244 521 250 656 l 217 0 l 99 0 l 149 947 z "},"N":{"ha":958,"x_min":122,"x_max":836,"o":"m 122 947 l 233 947 l 731 196 l 733 196 q 729 282 731 236 q 726 372 726 321 q 725 475 725 422 l 725 947 l 836 947 l 836 0 l 725 0 l 228 754 l 225 754 q 229 667 226 713 q 232 576 231 626 q 233 474 233 526 l 233 0 l 122 0 l 122 947 z "},"Ñ":{"ha":958,"x_min":122,"x_max":836,"o":"m 122 947 l 233 947 l 731 196 l 733 196 q 729 282 731 236 q 726 372 726 321 q 725 475 725 422 l 725 947 l 836 947 l 836 0 l 725 0 l 228 754 l 225 754 q 229 667 226 713 q 232 576 231 626 q 233 474 233 526 l 233 0 l 122 0 l 122 947 m 725 1135 q 652 1067 688 1088 q 582 1047 617 1047 q 520 1056 547 1047 q 470 1074 493 1064 q 428 1094 447 1085 q 393 1103 410 1103 q 344 1089 365 1103 q 306 1051 324 1075 l 233 1113 q 310 1177 269 1161 q 388 1193 350 1193 q 442 1184 417 1193 q 489 1165 467 1175 q 530 1146 511 1154 q 567 1138 549 1138 q 617 1155 599 1138 q 650 1192 636 1172 l 725 1135 z "},"O":{"ha":1056,"x_min":71,"x_max":985,"o":"m 71 474 q 113 701 71 608 q 222 851 156 794 q 369 934 288 908 q 528 960 450 960 q 687 938 606 960 q 834 862 768 917 q 942 713 900 807 q 985 472 985 618 q 942 243 985 336 q 834 92 900 150 q 687 8 768 33 q 528 -18 606 -18 q 369 7 450 -18 q 222 89 288 32 q 113 240 156 146 q 71 474 71 335 m 853 467 q 766 751 853 654 q 533 849 679 849 q 399 826 460 849 q 295 757 339 803 q 227 642 251 711 q 203 481 203 574 q 290 193 203 293 q 522 93 376 93 q 656 116 594 93 q 760 186 717 139 q 828 303 804 233 q 853 467 853 372 z "},"Œ":{"ha":1264,"x_min":71,"x_max":1197,"o":"m 603 840 l 567 840 q 413 819 482 840 q 297 753 344 797 q 222 640 249 708 q 196 476 196 571 q 225 304 196 375 q 305 190 254 233 q 423 126 356 146 q 567 107 490 107 l 603 107 l 603 840 m 567 0 q 372 28 463 0 q 215 116 282 57 q 110 265 149 175 q 71 476 71 354 q 106 686 71 597 q 207 833 142 775 q 363 919 272 892 q 567 947 454 947 l 1183 947 l 1183 840 l 719 840 l 719 538 l 1150 538 l 1150 433 l 719 433 l 719 107 l 1197 107 l 1197 0 l 567 0 z "},"Ó":{"ha":1056,"x_min":71,"x_max":985,"o":"m 71 474 q 113 701 71 608 q 222 851 156 794 q 369 934 288 908 q 528 960 450 960 q 687 938 606 960 q 834 862 768 917 q 942 713 900 807 q 985 472 985 618 q 942 243 985 336 q 834 92 900 150 q 687 8 768 33 q 528 -18 606 -18 q 369 7 450 -18 q 222 89 288 32 q 113 240 156 146 q 71 474 71 335 m 853 467 q 766 751 853 654 q 533 849 679 849 q 399 826 460 849 q 295 757 339 803 q 227 642 251 711 q 203 481 203 574 q 290 193 203 293 q 522 93 376 93 q 656 116 594 93 q 760 186 717 139 q 828 303 804 233 q 853 467 853 372 m 615 1303 l 688 1218 l 424 1067 l 376 1129 l 615 1303 z "},"Ô":{"ha":1056,"x_min":71,"x_max":985,"o":"m 71 474 q 113 701 71 608 q 222 851 156 794 q 369 934 288 908 q 528 960 450 960 q 687 938 606 960 q 834 862 768 917 q 942 713 900 807 q 985 472 985 618 q 942 243 985 336 q 834 92 900 150 q 687 8 768 33 q 528 -18 606 -18 q 369 7 450 -18 q 222 89 288 32 q 113 240 156 146 q 71 474 71 335 m 853 467 q 766 751 853 654 q 533 849 679 849 q 399 826 460 849 q 295 757 339 803 q 227 642 251 711 q 203 481 203 574 q 290 193 203 293 q 522 93 376 93 q 656 116 594 93 q 760 186 717 139 q 828 303 804 233 q 853 467 853 372 m 519 1306 l 575 1306 l 763 1115 l 707 1069 l 547 1204 l 388 1069 l 332 1115 l 519 1306 z "},"Ö":{"ha":1056,"x_min":71,"x_max":985,"o":"m 71 474 q 113 701 71 608 q 222 851 156 794 q 369 934 288 908 q 528 960 450 960 q 687 938 606 960 q 834 862 768 917 q 942 713 900 807 q 985 472 985 618 q 942 243 985 336 q 834 92 900 150 q 687 8 768 33 q 528 -18 606 -18 q 369 7 450 -18 q 222 89 288 32 q 113 240 156 146 q 71 474 71 335 m 853 467 q 766 751 853 654 q 533 849 679 849 q 399 826 460 849 q 295 757 339 803 q 227 642 251 711 q 203 481 203 574 q 290 193 203 293 q 522 93 376 93 q 656 116 594 93 q 760 186 717 139 q 828 303 804 233 q 853 467 853 372 m 343 1144 q 365 1198 343 1176 q 418 1219 386 1219 q 474 1198 451 1219 q 497 1144 497 1176 q 474 1091 497 1113 q 418 1069 451 1069 q 365 1091 386 1069 q 343 1144 343 1113 m 581 1144 q 602 1198 581 1176 q 656 1219 624 1219 q 712 1198 689 1219 q 735 1144 735 1176 q 712 1091 735 1113 q 656 1069 689 1069 q 602 1091 624 1069 q 581 1144 581 1113 z "},"Ò":{"ha":1056,"x_min":71,"x_max":985,"o":"m 71 474 q 113 701 71 608 q 222 851 156 794 q 369 934 288 908 q 528 960 450 960 q 687 938 606 960 q 834 862 768 917 q 942 713 900 807 q 985 472 985 618 q 942 243 985 336 q 834 92 900 150 q 687 8 768 33 q 528 -18 606 -18 q 369 7 450 -18 q 222 89 288 32 q 113 240 156 146 q 71 474 71 335 m 853 467 q 766 751 853 654 q 533 849 679 849 q 399 826 460 849 q 295 757 339 803 q 227 642 251 711 q 203 481 203 574 q 290 193 203 293 q 522 93 376 93 q 656 116 594 93 q 760 186 717 139 q 828 303 804 233 q 853 467 853 372 m 369 1218 l 442 1303 l 681 1129 l 633 1067 l 369 1218 z "},"Ø":{"ha":1056,"x_min":71,"x_max":985,"o":"m 183 125 q 101 269 132 183 q 71 474 71 354 q 113 701 71 608 q 222 851 156 794 q 369 934 288 908 q 528 960 450 960 q 675 942 600 960 q 814 876 750 924 l 908 989 l 983 926 l 885 810 q 958 671 931 753 q 985 472 985 589 q 942 243 985 336 q 834 92 900 150 q 687 8 768 33 q 528 -18 606 -18 q 390 0 460 -18 q 257 61 319 18 l 147 -71 l 72 -8 l 183 125 m 203 481 q 267 224 203 322 l 735 782 q 533 849 653 849 q 399 826 460 849 q 295 757 339 803 q 227 642 251 711 q 203 481 203 574 m 853 467 q 839 600 853 540 q 799 706 825 660 l 333 151 q 522 93 408 93 q 656 116 594 93 q 760 186 717 139 q 828 303 804 233 q 853 467 853 372 z "},"Õ":{"ha":1056,"x_min":71,"x_max":985,"o":"m 71 474 q 113 701 71 608 q 222 851 156 794 q 369 934 288 908 q 528 960 450 960 q 687 938 606 960 q 834 862 768 917 q 942 713 900 807 q 985 472 985 618 q 942 243 985 336 q 834 92 900 150 q 687 8 768 33 q 528 -18 606 -18 q 369 7 450 -18 q 222 89 288 32 q 113 240 156 146 q 71 474 71 335 m 853 467 q 766 751 853 654 q 533 849 679 849 q 399 826 460 849 q 295 757 339 803 q 227 642 251 711 q 203 481 203 574 q 290 193 203 293 q 522 93 376 93 q 656 116 594 93 q 760 186 717 139 q 828 303 804 233 q 853 467 853 372 m 774 1150 q 701 1083 736 1103 q 631 1063 665 1063 q 569 1071 596 1063 q 519 1090 542 1079 q 477 1109 496 1100 q 442 1118 458 1118 q 393 1104 414 1118 q 354 1067 372 1090 l 282 1128 q 358 1192 318 1176 q 436 1208 399 1208 q 490 1199 465 1208 q 538 1180 515 1190 q 578 1161 560 1169 q 615 1153 597 1153 q 666 1170 647 1153 q 699 1207 685 1188 l 774 1150 z "},"P":{"ha":750,"x_min":122,"x_max":694,"o":"m 122 947 l 340 947 q 608 883 521 947 q 694 668 694 819 q 663 529 694 585 q 583 440 631 474 q 479 391 535 406 q 376 376 424 376 l 239 376 l 239 0 l 122 0 l 122 947 m 239 481 l 367 481 q 452 490 414 481 q 518 520 490 499 q 561 578 546 542 q 576 671 576 615 q 560 760 576 726 q 513 813 544 794 q 435 837 482 831 q 325 843 388 843 l 239 843 l 239 481 z "},"Q":{"ha":1054,"x_min":71,"x_max":1126,"o":"m 853 467 q 766 751 853 654 q 533 849 679 849 q 399 826 460 849 q 295 757 339 803 q 227 642 251 711 q 203 481 203 574 q 290 193 203 293 q 522 93 376 93 q 656 116 594 93 q 760 186 717 139 q 828 303 804 233 q 853 467 853 372 m 589 -15 q 560 -18 571 -18 q 532 -18 549 -18 q 377 4 458 -18 q 228 82 296 26 q 115 233 160 138 q 71 474 71 328 q 113 701 71 608 q 221 851 154 794 q 369 934 288 908 q 532 960 451 960 q 692 938 611 960 q 838 861 772 917 q 944 712 903 806 q 985 472 985 618 q 963 305 985 378 q 904 177 940 232 q 821 85 868 122 q 724 26 774 49 q 778 -7 746 14 q 844 -48 810 -28 q 913 -82 879 -68 q 972 -96 946 -96 q 1024 -87 997 -96 q 1075 -64 1051 -79 l 1126 -154 q 1053 -190 1094 -174 q 967 -207 1013 -207 q 893 -191 935 -207 q 803 -149 851 -175 q 700 -87 754 -122 q 589 -15 646 -53 z "},"R":{"ha":804,"x_min":122,"x_max":810,"o":"m 122 947 l 356 947 q 495 934 432 947 q 603 890 558 921 q 671 807 647 858 q 694 678 694 756 q 665 538 693 592 q 597 452 638 485 q 504 404 557 419 l 504 401 q 522 381 510 396 q 542 356 533 367 l 810 0 l 672 0 l 397 376 l 239 376 l 239 0 l 122 0 l 122 947 m 576 658 q 562 753 576 717 q 519 810 547 790 q 449 836 490 829 q 354 843 407 843 l 239 843 l 239 481 l 376 481 q 468 494 431 481 q 529 533 506 508 q 564 589 553 557 q 576 658 575 621 z "},"S":{"ha":731,"x_min":63,"x_max":681,"o":"m 607 817 q 538 832 574 825 q 465 844 506 839 q 379 849 424 849 q 232 817 276 849 q 188 721 188 786 q 225 634 189 669 q 315 569 261 599 q 434 510 369 539 q 553 445 499 482 q 644 359 607 408 q 681 239 681 310 q 645 107 681 157 q 556 29 610 57 q 437 -8 501 1 q 314 -18 372 -18 q 213 -11 258 -18 q 133 4 167 -4 q 63 26 94 14 l 90 139 q 158 115 122 125 q 230 100 190 107 q 314 93 269 93 q 413 100 368 93 q 492 122 458 107 q 544 163 525 138 q 563 224 563 188 q 527 312 561 278 q 437 377 493 346 q 316 438 381 408 q 197 504 251 467 q 106 593 143 542 q 69 721 69 644 q 85 808 69 765 q 137 885 100 851 q 233 939 174 918 q 379 960 292 960 q 474 955 429 960 q 553 944 519 950 q 626 929 592 938 l 607 817 z "},"Š":{"ha":731,"x_min":63,"x_max":681,"o":"m 607 817 q 538 832 574 825 q 465 844 506 839 q 379 849 424 849 q 232 817 276 849 q 188 721 188 786 q 225 634 189 669 q 315 569 261 599 q 434 510 369 539 q 553 445 499 482 q 644 359 607 408 q 681 239 681 310 q 645 107 681 157 q 556 29 610 57 q 437 -8 501 1 q 314 -18 372 -18 q 213 -11 258 -18 q 133 4 167 -4 q 63 26 94 14 l 90 139 q 158 115 122 125 q 230 100 190 107 q 314 93 269 93 q 413 100 368 93 q 492 122 458 107 q 544 163 525 138 q 563 224 563 188 q 527 312 561 278 q 437 377 493 346 q 316 438 381 408 q 197 504 251 467 q 106 593 143 542 q 69 721 69 644 q 85 808 69 765 q 137 885 100 851 q 233 939 174 918 q 379 960 292 960 q 474 955 429 960 q 553 944 519 950 q 626 929 592 938 l 607 817 m 135 1260 l 190 1306 l 350 1171 l 510 1306 l 565 1260 l 378 1069 l 322 1069 l 135 1260 z "},"T":{"ha":758,"x_min":24,"x_max":735,"o":"m 321 839 l 24 839 l 24 947 l 735 947 l 735 839 l 438 839 l 438 0 l 321 0 l 321 839 z "},"U":{"ha":994,"x_min":115,"x_max":879,"o":"m 232 947 l 232 356 q 255 226 232 276 q 315 146 278 175 q 401 106 353 117 q 499 94 449 94 q 596 106 549 94 q 681 146 643 117 q 740 226 718 175 q 763 356 763 276 l 763 947 l 879 947 l 879 326 q 852 192 879 254 q 775 83 825 129 q 654 10 725 36 q 497 -17 583 -17 q 214 73 313 -17 q 115 326 115 163 l 115 947 l 232 947 z "},"Ú":{"ha":994,"x_min":115,"x_max":879,"o":"m 232 947 l 232 356 q 255 226 232 276 q 315 146 278 175 q 401 106 353 117 q 499 94 449 94 q 596 106 549 94 q 681 146 643 117 q 740 226 718 175 q 763 356 763 276 l 763 947 l 879 947 l 879 326 q 852 192 879 254 q 775 83 825 129 q 654 10 725 36 q 497 -17 583 -17 q 214 73 313 -17 q 115 326 115 163 l 115 947 l 232 947 m 667 1303 l 739 1218 l 475 1067 l 428 1129 l 667 1303 z "},"Û":{"ha":994,"x_min":115,"x_max":879,"o":"m 232 947 l 232 356 q 255 226 232 276 q 315 146 278 175 q 401 106 353 117 q 499 94 449 94 q 596 106 549 94 q 681 146 643 117 q 740 226 718 175 q 763 356 763 276 l 763 947 l 879 947 l 879 326 q 852 192 879 254 q 775 83 825 129 q 654 10 725 36 q 497 -17 583 -17 q 214 73 313 -17 q 115 326 115 163 l 115 947 l 232 947 m 483 1307 l 539 1307 l 726 1117 l 671 1071 l 511 1206 l 351 1071 l 296 1117 l 483 1307 z "},"Ü":{"ha":994,"x_min":115,"x_max":879,"o":"m 232 947 l 232 356 q 255 226 232 276 q 315 146 278 175 q 401 106 353 117 q 499 94 449 94 q 596 106 549 94 q 681 146 643 117 q 740 226 718 175 q 763 356 763 276 l 763 947 l 879 947 l 879 326 q 852 192 879 254 q 775 83 825 129 q 654 10 725 36 q 497 -17 583 -17 q 214 73 313 -17 q 115 326 115 163 l 115 947 l 232 947 m 294 1144 q 316 1198 294 1176 q 369 1219 338 1219 q 426 1198 403 1219 q 449 1144 449 1176 q 426 1091 449 1113 q 369 1069 403 1069 q 316 1091 338 1069 q 294 1144 294 1113 m 532 1144 q 553 1198 532 1176 q 607 1219 575 1219 q 663 1198 640 1219 q 686 1144 686 1176 q 663 1091 686 1113 q 607 1069 640 1069 q 553 1091 575 1069 q 532 1144 532 1113 z "},"Ù":{"ha":994,"x_min":115,"x_max":879,"o":"m 232 947 l 232 356 q 255 226 232 276 q 315 146 278 175 q 401 106 353 117 q 499 94 449 94 q 596 106 549 94 q 681 146 643 117 q 740 226 718 175 q 763 356 763 276 l 763 947 l 879 947 l 879 326 q 852 192 879 254 q 775 83 825 129 q 654 10 725 36 q 497 -17 583 -17 q 214 73 313 -17 q 115 326 115 163 l 115 947 l 232 947 m 326 1218 l 399 1303 l 638 1129 l 590 1067 l 326 1218 z "},"V":{"ha":828,"x_min":25,"x_max":803,"o":"m 25 947 l 143 947 l 415 111 l 417 111 l 685 947 l 803 947 l 488 0 l 340 0 l 25 947 z "},"W":{"ha":1314,"x_min":39,"x_max":1274,"o":"m 39 947 l 157 947 l 340 111 l 342 111 l 585 947 l 732 947 l 972 111 l 974 111 l 1156 947 l 1274 947 l 1056 0 l 908 0 l 658 835 l 657 835 l 406 0 l 258 0 l 39 947 z "},"X":{"ha":765,"x_min":28,"x_max":739,"o":"m 301 482 l 28 947 l 160 947 l 383 563 l 606 947 l 738 947 l 457 471 l 739 0 l 604 0 l 376 396 l 160 0 l 28 0 l 301 482 z "},"Y":{"ha":757,"x_min":17,"x_max":740,"o":"m 319 344 l 17 947 l 146 947 l 378 488 l 611 947 l 740 947 l 438 344 l 438 0 l 319 0 l 319 344 z "},"Ý":{"ha":757,"x_min":17,"x_max":740,"o":"m 319 344 l 17 947 l 146 947 l 378 488 l 611 947 l 740 947 l 438 344 l 438 0 l 319 0 l 319 344 m 482 1303 l 554 1218 l 290 1067 l 243 1129 l 482 1303 z "},"Ÿ":{"ha":757,"x_min":17,"x_max":740,"o":"m 319 344 l 17 947 l 146 947 l 378 488 l 611 947 l 740 947 l 438 344 l 438 0 l 319 0 l 319 344 m 183 1129 q 205 1183 183 1161 q 258 1204 226 1204 q 315 1183 292 1204 q 338 1129 338 1161 q 315 1076 338 1097 q 258 1054 292 1054 q 205 1076 226 1054 q 183 1129 183 1097 m 421 1129 q 442 1183 421 1161 q 496 1204 464 1204 q 552 1183 529 1204 q 575 1129 575 1161 q 552 1076 575 1097 q 496 1054 529 1054 q 442 1076 464 1054 q 421 1129 421 1097 z "},"Z":{"ha":817,"x_min":50,"x_max":772,"o":"m 50 50 l 586 836 l 50 836 l 50 947 l 772 947 l 772 900 l 232 111 l 760 111 l 760 0 l 50 0 l 50 50 z "},"Ž":{"ha":817,"x_min":50,"x_max":772,"o":"m 50 50 l 586 836 l 50 836 l 50 947 l 772 947 l 772 900 l 232 111 l 760 111 l 760 0 l 50 0 l 50 50 m 168 1260 l 224 1306 l 383 1171 l 543 1306 l 599 1260 l 411 1069 l 356 1069 l 168 1260 z "},"a":{"ha":696,"x_min":42,"x_max":608,"o":"m 489 321 q 436 318 461 319 q 387 315 411 317 q 343 310 363 313 q 201 266 243 297 q 160 176 160 235 q 190 103 160 128 q 268 79 219 79 q 387 102 335 79 q 489 163 439 125 l 489 321 m 488 65 q 366 5 422 28 q 244 -18 310 -18 q 97 27 151 -18 q 42 176 42 72 q 69 271 42 231 q 142 338 97 311 q 244 381 188 365 q 361 400 301 396 q 426 405 386 403 q 489 408 467 407 q 486 495 489 457 q 469 560 483 533 q 428 601 456 588 q 351 615 401 615 q 274 610 311 615 q 207 600 236 606 q 143 585 172 593 l 121 681 q 196 696 156 689 q 276 708 231 703 q 375 713 322 713 q 490 692 446 713 q 558 635 533 671 q 591 555 582 600 q 600 460 600 510 l 600 126 q 601 85 600 107 q 603 43 601 64 q 608 0 606 22 l 501 -11 l 488 65 z "},"á":{"ha":696,"x_min":42,"x_max":608,"o":"m 489 321 q 436 318 461 319 q 387 315 411 317 q 343 310 363 313 q 201 266 243 297 q 160 176 160 235 q 190 103 160 128 q 268 79 219 79 q 387 102 335 79 q 489 163 439 125 l 489 321 m 488 65 q 366 5 422 28 q 244 -18 310 -18 q 97 27 151 -18 q 42 176 42 72 q 69 271 42 231 q 142 338 97 311 q 244 381 188 365 q 361 400 301 396 q 426 405 386 403 q 489 408 467 407 q 486 495 489 457 q 469 560 483 533 q 428 601 456 588 q 351 615 401 615 q 274 610 311 615 q 207 600 236 606 q 143 585 172 593 l 121 681 q 196 696 156 689 q 276 708 231 703 q 375 713 322 713 q 490 692 446 713 q 558 635 533 671 q 591 555 582 600 q 600 460 600 510 l 600 126 q 601 85 600 107 q 603 43 601 64 q 608 0 606 22 l 501 -11 l 488 65 m 443 1071 l 515 986 l 251 835 l 204 897 l 443 1071 z "},"â":{"ha":696,"x_min":42,"x_max":608,"o":"m 489 321 q 436 318 461 319 q 387 315 411 317 q 343 310 363 313 q 201 266 243 297 q 160 176 160 235 q 190 103 160 128 q 268 79 219 79 q 387 102 335 79 q 489 163 439 125 l 489 321 m 488 65 q 366 5 422 28 q 244 -18 310 -18 q 97 27 151 -18 q 42 176 42 72 q 69 271 42 231 q 142 338 97 311 q 244 381 188 365 q 361 400 301 396 q 426 405 386 403 q 489 408 467 407 q 486 495 489 457 q 469 560 483 533 q 428 601 456 588 q 351 615 401 615 q 274 610 311 615 q 207 600 236 606 q 143 585 172 593 l 121 681 q 196 696 156 689 q 276 708 231 703 q 375 713 322 713 q 490 692 446 713 q 558 635 533 671 q 591 555 582 600 q 600 460 600 510 l 600 126 q 601 85 600 107 q 603 43 601 64 q 608 0 606 22 l 501 -11 l 488 65 m 326 1069 l 382 1069 l 569 879 l 514 833 l 354 968 l 194 833 l 139 879 l 326 1069 z "},"´":{"ha":589,"x_min":139,"x_max":450,"o":"m 378 1071 l 450 986 l 186 835 l 139 897 l 378 1071 z "},"ä":{"ha":696,"x_min":42,"x_max":608,"o":"m 489 321 q 436 318 461 319 q 387 315 411 317 q 343 310 363 313 q 201 266 243 297 q 160 176 160 235 q 190 103 160 128 q 268 79 219 79 q 387 102 335 79 q 489 163 439 125 l 489 321 m 488 65 q 366 5 422 28 q 244 -18 310 -18 q 97 27 151 -18 q 42 176 42 72 q 69 271 42 231 q 142 338 97 311 q 244 381 188 365 q 361 400 301 396 q 426 405 386 403 q 489 408 467 407 q 486 495 489 457 q 469 560 483 533 q 428 601 456 588 q 351 615 401 615 q 274 610 311 615 q 207 600 236 606 q 143 585 172 593 l 121 681 q 196 696 156 689 q 276 708 231 703 q 375 713 322 713 q 490 692 446 713 q 558 635 533 671 q 591 555 582 600 q 600 460 600 510 l 600 126 q 601 85 600 107 q 603 43 601 64 q 608 0 606 22 l 501 -11 l 488 65 m 160 899 q 181 952 160 931 q 235 974 203 974 q 291 952 268 974 q 314 899 314 931 q 291 845 314 867 q 235 824 268 824 q 181 845 203 824 q 160 899 160 867 m 397 899 q 419 952 397 931 q 472 974 440 974 q 528 952 506 974 q 551 899 551 931 q 528 845 551 867 q 472 824 506 824 q 419 845 440 824 q 397 899 397 867 z "},"æ":{"ha":1119,"x_min":42,"x_max":1068,"o":"m 244 -18 q 91 31 140 -18 q 42 176 42 81 q 67 272 42 232 q 134 340 92 313 q 231 381 176 367 q 346 400 286 396 q 392 403 367 401 q 482 411 418 406 l 488 449 q 469 573 500 531 q 351 615 439 615 q 144 589 256 615 l 121 688 q 375 713 249 713 q 500 685 454 711 q 568 618 546 660 q 810 713 656 713 q 926 686 878 713 q 1006 615 975 660 q 1053 509 1038 569 q 1068 382 1068 449 l 1047 321 l 597 321 q 610 231 597 275 q 651 153 624 188 q 723 99 679 119 q 828 79 767 79 q 1013 110 932 79 l 1033 19 q 807 -18 922 -18 q 669 6 732 -18 q 551 96 607 29 q 467 39 514 64 q 370 -1 426 17 q 244 -18 314 -18 m 506 169 q 492 219 497 193 q 483 268 486 244 q 478 321 479 294 q 343 310 403 317 q 201 266 243 297 q 158 176 158 235 q 189 103 158 128 q 268 79 219 79 q 395 106 335 79 q 506 169 456 132 m 953 410 q 949 453 953 419 q 929 522 944 486 q 883 587 914 558 q 797 615 851 615 q 701 592 739 615 q 642 534 664 568 q 612 465 621 500 q 603 410 603 431 l 953 410 z "},"à":{"ha":696,"x_min":42,"x_max":608,"o":"m 489 321 q 436 318 461 319 q 387 315 411 317 q 343 310 363 313 q 201 266 243 297 q 160 176 160 235 q 190 103 160 128 q 268 79 219 79 q 387 102 335 79 q 489 163 439 125 l 489 321 m 488 65 q 366 5 422 28 q 244 -18 310 -18 q 97 27 151 -18 q 42 176 42 72 q 69 271 42 231 q 142 338 97 311 q 244 381 188 365 q 361 400 301 396 q 426 405 386 403 q 489 408 467 407 q 486 495 489 457 q 469 560 483 533 q 428 601 456 588 q 351 615 401 615 q 274 610 311 615 q 207 600 236 606 q 143 585 172 593 l 121 681 q 196 696 156 689 q 276 708 231 703 q 375 713 322 713 q 490 692 446 713 q 558 635 533 671 q 591 555 582 600 q 600 460 600 510 l 600 126 q 601 85 600 107 q 603 43 601 64 q 608 0 606 22 l 501 -11 l 488 65 m 179 986 l 251 1071 l 490 897 l 443 835 l 179 986 z "},"&":{"ha":971,"x_min":75,"x_max":967,"o":"m 906 -29 q 808 50 857 8 q 708 136 758 92 q 556 25 643 68 q 357 -18 469 -18 q 244 -3 296 -18 q 156 42 193 13 q 97 118 118 72 q 75 225 75 164 q 99 334 75 286 q 160 419 124 382 q 236 485 196 457 q 310 535 276 514 q 257 597 285 565 q 206 665 229 629 q 169 740 183 700 q 154 828 154 781 q 169 906 154 867 q 215 975 183 944 q 297 1025 246 1006 q 421 1044 347 1044 q 545 1027 496 1044 q 624 981 594 1010 q 665 912 653 951 q 676 828 676 872 q 656 733 676 778 q 602 649 635 688 q 531 578 569 610 q 456 522 492 546 q 581 392 522 451 q 696 282 640 333 q 761 399 733 338 q 808 518 789 460 l 900 488 q 849 351 881 422 q 771 214 818 281 q 870 126 822 168 q 967 39 918 83 l 906 -29 m 357 79 q 509 113 440 79 q 632 204 578 147 q 497 332 563 267 q 372 464 431 397 q 304 415 338 440 q 244 361 271 390 q 202 297 218 332 q 186 221 186 263 q 197 170 186 196 q 228 124 207 144 q 282 92 250 104 q 357 79 314 79 m 265 828 q 274 767 265 794 q 298 711 282 739 q 339 653 314 683 q 397 585 364 624 q 460 634 431 607 q 514 692 490 661 q 551 756 538 722 q 565 825 565 789 q 535 915 565 883 q 421 947 506 947 q 304 915 343 947 q 265 828 265 883 z "},"≈":{"ha":825,"x_min":83,"x_max":740,"o":"m 718 479 q 648 433 686 453 q 556 414 610 414 q 478 424 513 414 q 410 447 443 435 q 342 469 376 458 q 265 479 307 479 q 200 464 229 479 q 126 425 171 449 l 83 508 q 164 553 115 531 q 265 576 213 576 q 342 566 307 576 q 410 544 376 556 q 478 522 443 532 q 556 511 513 511 q 619 529 588 511 q 671 563 650 547 l 718 479 m 740 275 q 672 228 708 249 q 582 208 636 208 q 504 219 539 208 q 436 241 469 229 q 368 263 403 253 q 292 274 333 274 q 227 259 256 274 q 153 219 199 244 l 110 303 q 190 348 142 325 q 292 371 239 371 q 368 360 333 371 q 436 338 403 350 q 504 316 469 326 q 582 306 539 306 q 645 324 614 306 q 697 357 676 342 l 740 275 z "},"å":{"ha":696,"x_min":42,"x_max":608,"o":"m 489 321 q 436 318 461 319 q 387 315 411 317 q 343 310 363 313 q 201 266 243 297 q 160 176 160 235 q 190 103 160 128 q 268 79 219 79 q 387 102 335 79 q 489 163 439 125 l 489 321 m 488 65 q 366 5 422 28 q 244 -18 310 -18 q 97 27 151 -18 q 42 176 42 72 q 69 271 42 231 q 142 338 97 311 q 244 381 188 365 q 361 400 301 396 q 426 405 386 403 q 489 408 467 407 q 486 495 489 457 q 469 560 483 533 q 428 601 456 588 q 351 615 401 615 q 274 610 311 615 q 207 600 236 606 q 143 585 172 593 l 121 681 q 196 696 156 689 q 276 708 231 703 q 375 713 322 713 q 490 692 446 713 q 558 635 533 671 q 591 555 582 600 q 600 460 600 510 l 600 126 q 601 85 600 107 q 603 43 601 64 q 608 0 606 22 l 501 -11 l 488 65 m 213 958 q 224 1018 213 990 q 255 1066 235 1046 q 301 1098 275 1086 q 360 1110 328 1110 q 469 1067 425 1110 q 514 958 514 1024 q 502 899 514 926 q 469 852 490 872 q 420 820 449 832 q 360 808 392 808 q 301 820 328 808 q 255 852 275 832 q 224 899 235 872 q 213 958 213 926 m 283 958 q 306 902 283 925 q 363 879 329 879 q 419 902 396 879 q 443 958 443 925 q 419 1015 443 992 q 363 1039 396 1039 q 306 1015 329 1039 q 283 958 283 992 z "},"^":{"ha":925,"x_min":139,"x_max":786,"o":"m 465 1035 l 786 600 l 668 600 l 465 885 l 263 600 l 139 600 l 465 1035 z "},"~":{"ha":774,"x_min":69,"x_max":707,"o":"m 707 392 q 629 337 667 357 q 543 317 592 317 q 465 328 500 317 q 397 356 431 340 q 329 383 364 371 q 253 396 294 396 q 192 381 221 394 q 117 336 164 367 l 69 415 q 153 467 106 442 q 253 493 200 492 q 329 481 294 493 q 397 453 364 468 q 465 426 431 438 q 543 414 500 414 q 606 433 574 414 q 657 469 638 453 l 707 392 z "},"*":{"ha":621,"x_min":67,"x_max":556,"o":"m 396 569 l 499 438 l 410 371 l 310 515 l 213 368 l 121 432 l 226 571 l 67 626 l 103 731 l 261 665 l 257 833 l 368 833 l 363 665 l 518 724 l 556 619 l 396 569 z "},"@":{"ha":1185,"x_min":76,"x_max":1124,"o":"m 715 608 q 690 613 704 611 q 660 617 676 615 q 628 618 644 618 q 560 603 593 618 q 499 556 526 588 q 456 476 472 525 q 439 363 439 428 q 441 331 439 347 q 447 299 443 314 q 458 276 451 285 q 475 267 465 267 q 501 280 482 267 q 543 315 519 293 q 593 365 567 336 q 642 422 619 393 q 681 481 664 451 q 701 533 697 510 l 715 608 m 788 413 q 785 364 783 389 q 790 318 786 339 q 799 284 794 297 q 808 271 804 271 q 888 285 849 271 q 958 331 926 300 q 1008 408 989 361 q 1026 518 1026 454 q 1000 676 1026 611 q 923 783 974 742 q 799 844 872 825 q 633 863 726 863 q 463 831 546 863 q 315 740 379 800 q 213 592 251 681 q 174 390 174 504 q 274 92 174 183 q 578 0 375 0 q 665 6 626 0 q 731 19 703 13 q 786 39 763 28 l 814 -53 q 738 -74 779 -65 q 652 -88 701 -82 q 544 -94 603 -94 q 348 -65 435 -94 q 201 23 261 -36 q 108 174 140 82 q 76 390 76 265 q 123 631 76 525 q 247 810 169 738 q 424 922 324 883 q 633 960 525 960 q 832 936 742 960 q 987 860 922 913 q 1088 724 1051 808 q 1124 518 1124 639 q 1103 388 1124 451 q 1039 276 1083 325 q 924 197 994 226 q 754 167 854 167 q 739 178 749 167 q 721 215 729 190 q 706 278 713 240 q 701 369 700 317 l 699 369 q 565 225 626 276 q 450 174 504 174 q 358 219 388 174 q 329 340 329 265 q 353 491 329 422 q 422 609 378 560 q 526 685 465 658 q 658 713 586 713 q 706 709 678 713 q 829 690 735 706 l 788 413 z "},"ã":{"ha":696,"x_min":42,"x_max":608,"o":"m 489 321 q 436 318 461 319 q 387 315 411 317 q 343 310 363 313 q 201 266 243 297 q 160 176 160 235 q 190 103 160 128 q 268 79 219 79 q 387 102 335 79 q 489 163 439 125 l 489 321 m 488 65 q 366 5 422 28 q 244 -18 310 -18 q 97 27 151 -18 q 42 176 42 72 q 69 271 42 231 q 142 338 97 311 q 244 381 188 365 q 361 400 301 396 q 426 405 386 403 q 489 408 467 407 q 486 495 489 457 q 469 560 483 533 q 428 601 456 588 q 351 615 401 615 q 274 610 311 615 q 207 600 236 606 q 143 585 172 593 l 121 681 q 196 696 156 689 q 276 708 231 703 q 375 713 322 713 q 490 692 446 713 q 558 635 533 671 q 591 555 582 600 q 600 460 600 510 l 600 126 q 601 85 600 107 q 603 43 601 64 q 608 0 606 22 l 501 -11 l 488 65 m 600 921 q 527 853 563 874 q 457 833 492 833 q 395 842 422 833 q 345 860 368 850 q 303 880 322 871 q 268 889 285 889 q 219 875 240 889 q 181 838 199 861 l 108 899 q 185 963 144 947 q 263 979 225 979 q 317 970 292 979 q 364 951 342 961 q 405 932 386 940 q 442 924 424 924 q 492 941 474 924 q 525 978 511 958 l 600 921 z "},"b":{"ha":747,"x_min":99,"x_max":685,"o":"m 99 1040 l 210 1053 l 210 639 q 274 675 240 660 q 336 701 301 689 q 406 713 371 713 q 513 690 463 713 q 602 624 564 668 q 663 511 640 579 q 685 350 685 443 q 656 177 685 247 q 580 64 628 107 q 471 1 532 21 q 346 -18 410 -18 q 235 -9 282 -18 q 158 11 189 0 q 99 42 122 25 l 99 1040 m 210 103 q 249 91 228 96 q 294 83 269 86 q 346 79 318 79 q 453 97 410 79 q 521 150 496 115 q 556 234 546 185 q 567 344 567 283 q 556 442 567 393 q 524 528 546 490 q 469 591 501 567 q 393 615 436 615 q 332 603 364 615 q 272 576 300 592 q 210 539 240 560 l 210 103 z "},"\\":{"ha":706,"x_min":40,"x_max":665,"o":"m 40 1143 l 144 1179 l 665 -253 l 561 -289 l 40 1143 z "},"|":{"ha":319,"x_min":104,"x_max":215,"o":"m 104 1053 l 215 1053 l 215 -317 l 104 -317 l 104 1053 z "},"{":{"ha":451,"x_min":36,"x_max":418,"o":"m 165 181 q 153 252 165 224 q 122 299 140 281 q 80 328 103 317 q 36 347 57 339 l 36 451 q 86 473 63 461 q 128 503 110 485 q 156 552 146 522 q 165 632 165 582 q 164 702 165 671 q 160 765 163 733 q 157 831 158 796 q 156 913 156 867 q 181 994 156 960 q 242 1053 206 1029 q 322 1091 279 1076 q 399 1114 364 1106 l 418 1017 q 343 990 375 1007 q 289 950 313 975 q 265 889 265 925 q 270 772 265 832 q 275 624 275 711 q 251 480 276 540 q 160 399 226 419 q 251 326 226 379 q 275 189 275 272 q 270 41 275 101 q 265 -76 265 -19 q 290 -138 267 -114 q 342 -178 313 -162 q 418 -204 375 -194 l 399 -301 q 322 -278 364 -293 q 242 -240 279 -264 q 180 -181 204 -215 q 156 -100 156 -147 q 157 -19 156 -54 q 160 48 158 17 q 164 110 163 79 q 165 181 165 142 z "},"}":{"ha":451,"x_min":33,"x_max":415,"o":"m 286 181 q 288 110 286 142 q 291 48 289 79 q 294 -19 293 17 q 296 -100 296 -54 q 271 -182 296 -147 q 209 -240 246 -217 q 130 -279 172 -264 q 53 -301 88 -294 l 33 -204 q 110 -178 75 -194 q 162 -138 138 -162 q 186 -76 186 -114 q 181 41 186 -19 q 176 189 176 101 q 201 326 176 272 q 292 399 225 379 q 201 478 228 417 q 176 624 175 540 q 181 772 176 711 q 186 889 186 832 q 163 950 186 925 q 110 990 140 975 q 33 1017 75 1007 l 53 1114 q 130 1091 88 1106 q 209 1053 172 1076 q 271 994 246 1029 q 296 913 296 960 q 294 831 296 867 q 291 765 293 796 q 288 702 289 733 q 286 632 286 671 q 296 552 286 582 q 324 503 306 522 q 365 474 342 485 q 415 451 388 463 l 415 347 q 371 327 394 339 q 329 298 347 315 q 299 252 311 281 q 286 181 286 224 z "},"[":{"ha":432,"x_min":103,"x_max":392,"o":"m 103 1097 l 392 1097 l 392 986 l 221 986 l 221 -239 l 392 -239 l 392 -350 l 103 -350 l 103 1097 z "},"]":{"ha":432,"x_min":40,"x_max":329,"o":"m 329 -350 l 40 -350 l 40 -239 l 211 -239 l 211 986 l 40 986 l 40 1097 l 329 1097 l 329 -350 z "},"˘":{"ha":644,"x_min":139,"x_max":506,"o":"m 218 974 q 257 921 229 942 q 321 900 285 900 q 384 921 356 900 q 425 974 413 942 l 506 974 q 481 915 499 942 q 438 867 463 888 q 383 835 414 847 q 321 824 353 824 q 258 835 288 824 q 203 867 228 847 q 163 915 179 888 q 139 974 146 942 l 218 974 z "},"¦":{"ha":325,"x_min":114,"x_max":211,"o":"m 114 425 l 211 425 l 211 0 l 114 0 l 114 425 m 114 947 l 211 947 l 211 522 l 114 522 l 114 947 z "},"•":{"ha":474,"x_min":64,"x_max":411,"o":"m 64 371 q 78 435 64 404 q 115 488 92 465 q 169 523 138 510 q 236 536 200 536 q 303 523 271 536 q 358 488 335 510 q 397 435 382 465 q 411 371 411 404 q 397 302 411 335 q 358 245 382 269 q 303 207 335 221 q 236 193 271 193 q 169 207 200 193 q 115 245 138 221 q 78 302 92 269 q 64 371 64 335 z "},"c":{"ha":607,"x_min":63,"x_max":569,"o":"m 533 597 q 468 609 510 603 q 383 615 426 615 q 281 590 321 615 q 219 526 242 565 q 189 438 197 486 q 181 344 181 390 q 199 223 181 274 q 247 140 217 172 q 315 94 276 108 q 397 79 354 79 q 453 83 426 79 q 503 91 481 86 q 547 103 526 96 l 569 10 q 515 -4 540 1 q 456 -14 490 -10 q 383 -18 422 -18 q 247 1 307 -18 q 147 64 188 21 q 84 176 106 107 q 63 346 63 246 q 90 513 63 443 q 161 627 117 583 q 263 692 206 671 q 383 713 321 713 q 448 709 417 713 q 503 701 479 706 q 556 690 531 696 l 533 597 z "},"ˇ":{"ha":708,"x_min":139,"x_max":569,"o":"m 139 1014 l 194 1060 l 354 925 l 514 1060 l 569 1014 l 382 824 l 326 824 l 139 1014 z "},"ç":{"ha":607,"x_min":63,"x_max":569,"o":"m 533 597 q 468 609 510 603 q 383 615 426 615 q 281 590 321 615 q 219 526 242 565 q 189 438 197 486 q 181 344 181 390 q 199 223 181 274 q 247 140 217 172 q 315 94 276 108 q 397 79 354 79 q 453 83 426 79 q 503 91 481 86 q 547 103 526 96 l 569 10 q 515 -4 540 1 q 456 -14 490 -10 q 383 -18 422 -18 q 247 1 307 -18 q 147 64 188 21 q 84 176 106 107 q 63 346 63 246 q 90 513 63 443 q 161 627 117 583 q 263 692 206 671 q 383 713 321 713 q 448 709 417 713 q 503 701 479 706 q 556 690 531 696 l 533 597 m 303 -82 l 413 -82 l 413 -115 q 409 -164 413 -140 q 395 -214 406 -187 q 365 -271 385 -240 q 310 -339 344 -301 l 231 -274 q 272 -221 257 -244 q 294 -178 288 -197 q 301 -144 300 -160 q 303 -115 303 -128 l 303 -82 z "},"¸":{"ha":460,"x_min":139,"x_max":321,"o":"m 211 -82 l 321 -82 l 321 -115 q 317 -164 321 -140 q 303 -214 314 -187 q 273 -271 293 -240 q 218 -339 253 -301 l 139 -274 q 181 -221 165 -244 q 202 -178 196 -197 q 210 -144 208 -160 q 211 -115 211 -128 l 211 -82 z "},"¢":{"ha":640,"x_min":69,"x_max":574,"o":"m 313 142 q 206 163 251 146 q 131 218 161 181 q 85 315 100 256 q 69 463 69 375 q 90 592 69 535 q 143 690 110 649 q 220 754 176 731 q 313 785 264 778 l 313 947 l 424 947 l 424 783 q 481 774 453 779 q 564 756 510 769 l 542 663 q 430 686 474 681 q 349 692 386 692 q 259 669 292 692 q 211 612 226 646 q 192 537 196 578 q 188 461 188 496 q 197 358 188 400 q 227 288 206 315 q 284 249 249 261 q 372 238 319 238 q 451 244 407 238 q 551 271 496 251 l 574 178 q 503 157 543 165 q 424 144 464 149 l 424 -28 l 313 -28 l 313 142 z "},"ˆ":{"ha":708,"x_min":139,"x_max":569,"o":"m 326 1069 l 382 1069 l 569 879 l 514 833 l 354 968 l 194 833 l 139 879 l 326 1069 z "},":":{"ha":340,"x_min":86,"x_max":254,"o":"m 86 82 q 110 140 86 115 q 168 164 133 164 q 229 140 204 164 q 254 82 254 115 q 229 24 254 47 q 168 0 204 0 q 110 24 133 0 q 86 82 86 47 m 86 547 q 110 605 86 581 q 168 629 133 629 q 229 605 204 629 q 254 547 254 581 q 229 489 254 513 q 168 465 204 465 q 110 489 133 465 q 86 547 86 513 z "},",":{"ha":293,"x_min":51,"x_max":217,"o":"m 99 181 l 217 181 l 139 -178 l 51 -161 l 99 181 z "},"©":{"ha":1085,"x_min":69,"x_max":1015,"o":"m 69 474 q 106 658 69 571 q 208 808 143 744 q 358 910 272 872 q 542 947 443 947 q 726 910 639 947 q 876 808 813 872 q 978 658 940 744 q 1015 474 1015 571 q 978 290 1015 375 q 876 140 940 204 q 726 38 813 75 q 542 1 639 1 q 358 38 443 1 q 208 140 272 75 q 106 290 143 204 q 69 474 69 375 m 149 474 q 180 322 149 393 q 265 197 211 250 q 390 112 318 143 q 542 81 461 81 q 695 112 624 81 q 820 197 767 143 q 904 322 874 250 q 935 474 935 393 q 904 627 935 556 q 820 752 874 699 q 695 836 767 806 q 542 867 624 867 q 390 836 461 867 q 265 752 318 806 q 180 627 211 699 q 149 474 149 556 m 660 656 q 589 667 613 665 q 544 669 565 669 q 474 651 501 669 q 431 603 446 632 q 409 540 415 574 q 403 475 403 506 q 416 390 403 425 q 451 331 429 354 q 500 296 472 307 q 556 285 528 285 q 606 289 578 285 q 669 304 633 293 l 686 222 q 608 202 642 207 q 544 197 574 197 q 447 211 492 197 q 369 257 401 225 q 317 343 336 289 q 299 476 299 397 q 320 608 299 554 q 376 694 342 661 q 455 741 411 726 q 544 756 499 756 q 600 752 569 756 q 679 738 631 749 l 660 656 z "},"d":{"ha":749,"x_min":63,"x_max":656,"o":"m 536 594 q 458 612 486 608 q 401 615 431 615 q 301 594 343 615 q 233 537 260 574 q 193 452 206 500 q 181 350 181 404 q 191 253 181 301 q 224 165 201 204 q 278 103 246 126 q 354 79 310 79 q 417 90 385 79 q 478 116 450 101 q 536 153 506 131 l 536 594 m 538 56 q 476 19 506 33 q 410 -7 446 4 q 342 -18 375 -18 q 137 74 211 -18 q 63 344 63 167 q 97 521 63 450 q 182 634 131 592 q 292 694 233 676 q 401 713 351 713 q 454 709 426 713 q 536 692 482 706 l 536 1040 l 647 1053 l 647 126 q 648 85 647 107 q 651 43 649 64 q 656 0 653 22 l 549 -11 l 538 56 z "},"†":{"ha":597,"x_min":56,"x_max":542,"o":"m 236 713 l 56 713 l 56 810 l 236 810 l 236 1040 l 347 1053 l 347 810 l 542 810 l 542 713 l 347 713 l 347 0 l 236 0 l 236 713 z "},"‡":{"ha":631,"x_min":72,"x_max":558,"o":"m 72 810 l 253 810 l 253 1040 l 364 1053 l 364 810 l 558 810 l 558 713 l 364 713 l 364 547 l 253 547 l 253 713 l 72 713 l 72 810 m 72 376 l 253 376 l 253 481 l 364 481 l 364 376 l 558 376 l 558 279 l 364 279 l 364 0 l 253 0 l 253 279 l 72 279 l 72 376 z "},"°":{"ha":493,"x_min":60,"x_max":435,"o":"m 60 871 q 74 942 60 908 q 115 999 89 975 q 174 1038 140 1024 q 246 1053 208 1053 q 317 1038 283 1053 q 378 999 351 1024 q 419 942 404 975 q 435 871 435 908 q 419 799 435 833 q 378 738 404 764 q 317 697 351 713 q 246 682 283 682 q 174 697 208 682 q 115 738 140 713 q 74 799 89 764 q 60 871 60 833 m 149 871 q 175 795 149 825 q 246 765 201 765 q 318 795 290 765 q 346 871 346 825 q 318 943 346 915 q 246 971 290 971 q 175 943 201 971 q 149 871 149 915 z "},"¨":{"ha":669,"x_min":139,"x_max":531,"o":"m 139 899 q 160 952 139 931 q 214 974 182 974 q 270 952 247 974 q 293 899 293 931 q 270 845 293 867 q 214 824 247 824 q 160 845 182 824 q 139 899 139 867 m 376 899 q 398 952 376 931 q 451 974 419 974 q 508 952 485 974 q 531 899 531 931 q 508 845 531 867 q 451 824 485 824 q 398 845 419 824 q 376 899 376 867 z "},"÷":{"ha":767,"x_min":78,"x_max":689,"o":"m 78 449 l 689 449 l 689 338 l 78 338 l 78 449 m 383 549 q 325 572 349 549 q 301 629 301 594 q 325 689 301 665 q 383 713 349 713 q 442 689 419 713 q 465 629 465 665 q 442 572 465 594 q 383 549 419 549 m 383 74 q 325 97 349 74 q 301 154 301 119 q 325 214 301 190 q 383 238 349 238 q 442 214 419 238 q 465 154 465 190 q 442 97 465 119 q 383 74 419 74 z "},"$":{"ha":747,"x_min":69,"x_max":688,"o":"m 325 -18 q 69 26 190 -18 l 97 139 q 321 93 214 93 q 420 99 375 93 q 499 120 465 106 q 551 160 532 135 q 569 224 569 185 q 533 311 569 275 q 442 378 496 347 q 323 438 388 408 q 204 506 258 468 q 113 594 150 543 q 76 721 76 646 q 143 877 76 813 q 325 957 210 942 l 325 1086 l 422 1086 l 422 958 q 628 932 526 954 l 614 817 q 386 849 496 849 q 239 818 283 849 q 194 721 194 788 q 231 637 194 672 q 322 571 268 601 q 441 511 376 540 q 560 444 506 482 q 651 358 614 407 q 688 239 688 308 q 665 133 688 176 q 604 62 642 90 q 519 16 567 33 q 422 -11 472 -1 l 422 -140 l 325 -140 l 325 -18 z "},"˙":{"ha":432,"x_min":139,"x_max":293,"o":"m 139 899 q 160 952 139 931 q 214 974 182 974 q 270 952 247 974 q 293 899 293 931 q 270 845 293 867 q 214 824 247 824 q 160 845 182 824 q 139 899 139 867 z "},"ı":{"ha":311,"x_min":100,"x_max":211,"o":"m 100 700 l 211 713 l 211 0 l 100 0 l 100 700 z "},"e":{"ha":703,"x_min":61,"x_max":651,"o":"m 617 17 q 551 0 585 7 q 476 -12 517 -7 q 390 -18 435 -18 q 261 1 321 -18 q 157 64 201 21 q 87 176 113 107 q 61 344 61 244 q 86 503 61 435 q 155 619 111 572 q 258 689 199 665 q 386 713 317 713 q 504 686 454 713 q 587 615 554 660 q 635 509 619 569 q 651 382 651 449 l 631 321 l 182 321 q 193 235 182 278 q 231 157 204 192 q 302 101 258 122 q 411 79 346 79 q 488 84 453 79 q 548 95 522 89 q 596 110 574 101 l 617 17 m 536 410 q 532 453 536 419 q 513 522 528 486 q 465 587 497 558 q 381 615 433 615 q 285 591 322 615 q 225 533 247 567 q 194 465 203 500 q 186 410 186 431 l 536 410 z "},"é":{"ha":703,"x_min":61,"x_max":651,"o":"m 617 17 q 551 0 585 7 q 476 -12 517 -7 q 390 -18 435 -18 q 261 1 321 -18 q 157 64 201 21 q 87 176 113 107 q 61 344 61 244 q 86 503 61 435 q 155 619 111 572 q 258 689 199 665 q 386 713 317 713 q 504 686 454 713 q 587 615 554 660 q 635 509 619 569 q 651 382 651 449 l 631 321 l 182 321 q 193 235 182 278 q 231 157 204 192 q 302 101 258 122 q 411 79 346 79 q 488 84 453 79 q 548 95 522 89 q 596 110 574 101 l 617 17 m 536 410 q 532 453 536 419 q 513 522 528 486 q 465 587 497 558 q 381 615 433 615 q 285 591 322 615 q 225 533 247 567 q 194 465 203 500 q 186 410 186 431 l 536 410 m 468 1071 l 540 986 l 276 835 l 229 897 l 468 1071 z "},"ê":{"ha":703,"x_min":61,"x_max":651,"o":"m 617 17 q 551 0 585 7 q 476 -12 517 -7 q 390 -18 435 -18 q 261 1 321 -18 q 157 64 201 21 q 87 176 113 107 q 61 344 61 244 q 86 503 61 435 q 155 619 111 572 q 258 689 199 665 q 386 713 317 713 q 504 686 454 713 q 587 615 554 660 q 635 509 619 569 q 651 382 651 449 l 631 321 l 182 321 q 193 235 182 278 q 231 157 204 192 q 302 101 258 122 q 411 79 346 79 q 488 84 453 79 q 548 95 522 89 q 596 110 574 101 l 617 17 m 536 410 q 532 453 536 419 q 513 522 528 486 q 465 587 497 558 q 381 615 433 615 q 285 591 322 615 q 225 533 247 567 q 194 465 203 500 q 186 410 186 431 l 536 410 m 349 1069 l 404 1069 l 592 879 l 536 833 l 376 968 l 217 833 l 161 879 l 349 1069 z "},"ë":{"ha":703,"x_min":61,"x_max":651,"o":"m 617 17 q 551 0 585 7 q 476 -12 517 -7 q 390 -18 435 -18 q 261 1 321 -18 q 157 64 201 21 q 87 176 113 107 q 61 344 61 244 q 86 503 61 435 q 155 619 111 572 q 258 689 199 665 q 386 713 317 713 q 504 686 454 713 q 587 615 554 660 q 635 509 619 569 q 651 382 651 449 l 631 321 l 182 321 q 193 235 182 278 q 231 157 204 192 q 302 101 258 122 q 411 79 346 79 q 488 84 453 79 q 548 95 522 89 q 596 110 574 101 l 617 17 m 536 410 q 532 453 536 419 q 513 522 528 486 q 465 587 497 558 q 381 615 433 615 q 285 591 322 615 q 225 533 247 567 q 194 465 203 500 q 186 410 186 431 l 536 410 m 175 899 q 197 952 175 931 q 250 974 218 974 q 306 952 283 974 q 329 899 329 931 q 306 845 329 867 q 250 824 283 824 q 197 845 218 824 q 175 899 175 867 m 413 899 q 434 952 413 931 q 488 974 456 974 q 544 952 521 974 q 567 899 567 931 q 544 845 567 867 q 488 824 521 824 q 434 845 456 824 q 413 899 413 867 z "},"è":{"ha":703,"x_min":61,"x_max":651,"o":"m 617 17 q 551 0 585 7 q 476 -12 517 -7 q 390 -18 435 -18 q 261 1 321 -18 q 157 64 201 21 q 87 176 113 107 q 61 344 61 244 q 86 503 61 435 q 155 619 111 572 q 258 689 199 665 q 386 713 317 713 q 504 686 454 713 q 587 615 554 660 q 635 509 619 569 q 651 382 651 449 l 631 321 l 182 321 q 193 235 182 278 q 231 157 204 192 q 302 101 258 122 q 411 79 346 79 q 488 84 453 79 q 548 95 522 89 q 596 110 574 101 l 617 17 m 536 410 q 532 453 536 419 q 513 522 528 486 q 465 587 497 558 q 381 615 433 615 q 285 591 322 615 q 225 533 247 567 q 194 465 203 500 q 186 410 186 431 l 536 410 m 196 986 l 268 1071 l 507 897 l 460 835 l 196 986 z "},"…":{"ha":938,"x_min":71,"x_max":867,"o":"m 71 75 q 92 128 71 107 q 146 150 114 150 q 202 128 179 150 q 225 75 225 107 q 202 22 225 43 q 146 0 179 0 q 92 22 114 0 q 71 75 71 43 m 392 75 q 413 128 392 107 q 467 150 435 150 q 523 128 500 150 q 546 75 546 107 q 523 22 546 43 q 467 0 500 0 q 413 22 435 0 q 392 75 392 43 m 713 75 q 734 128 713 107 q 788 150 756 150 q 844 128 821 150 q 867 75 867 107 q 844 22 867 43 q 788 0 821 0 q 734 22 756 0 q 713 75 713 43 z "},"—":{"ha":1106,"x_min":88,"x_max":1018,"o":"m 88 408 l 1018 408 l 1018 297 l 88 297 l 88 408 z "},"–":{"ha":786,"x_min":88,"x_max":699,"o":"m 88 408 l 699 408 l 699 297 l 88 297 l 88 408 z "},"=":{"ha":803,"x_min":96,"x_max":707,"o":"m 96 306 l 707 306 l 707 208 l 96 208 l 96 306 m 96 590 l 707 590 l 707 493 l 96 493 l 96 590 z "},"ð":{"ha":713,"x_min":44,"x_max":642,"o":"m 254 681 l 367 767 q 314 825 342 796 q 257 885 286 854 l 338 960 q 398 894 369 925 q 453 832 426 863 l 576 925 l 626 860 l 506 767 q 605 591 568 683 q 642 372 642 499 q 620 202 642 275 q 559 80 599 129 q 464 6 519 31 q 340 -18 408 -18 q 208 2 264 -18 q 116 59 153 22 q 62 148 79 96 q 44 263 44 200 q 75 394 44 340 q 151 483 106 449 q 249 532 196 517 q 346 547 301 547 q 406 544 376 547 q 458 538 435 540 q 510 528 485 532 q 472 619 494 576 q 419 701 449 661 l 307 614 l 254 681 m 342 81 q 476 147 432 81 q 524 360 519 214 q 519 435 525 393 q 363 450 432 450 q 213 400 263 450 q 163 260 163 350 q 178 173 163 207 q 218 118 193 139 q 276 89 243 97 q 342 81 308 81 z "},"!":{"ha":346,"x_min":89,"x_max":257,"o":"m 101 1011 l 243 1026 l 219 253 l 129 253 l 101 1011 m 89 82 q 113 140 89 115 q 171 164 136 164 q 232 140 207 164 q 257 82 257 115 q 232 24 257 47 q 171 0 207 0 q 113 24 136 0 q 89 82 89 47 z "},"¡":{"ha":318,"x_min":75,"x_max":243,"o":"m 115 438 l 206 438 l 229 -336 l 88 -321 l 115 438 m 75 603 q 99 661 75 638 q 157 685 122 685 q 218 661 193 685 q 243 603 243 638 q 218 545 243 569 q 157 521 193 521 q 99 545 122 521 q 75 603 75 569 z "},"f":{"ha":472,"x_min":31,"x_max":574,"o":"m 160 608 l 31 608 l 31 699 l 160 699 q 173 863 160 796 q 215 973 186 931 q 290 1034 244 1015 q 401 1053 336 1053 q 500 1035 454 1053 q 574 993 546 1018 l 525 910 q 467 943 497 931 q 403 956 438 956 q 331 935 357 956 q 291 881 304 915 q 274 799 278 846 q 271 699 271 753 l 444 699 l 444 608 l 271 608 l 271 0 l 160 0 l 160 608 z "},"ﬁ":{"ha":833,"x_min":31,"x_max":735,"o":"m 160 608 l 31 608 l 31 699 l 158 699 q 185 863 158 796 q 257 973 213 931 q 358 1034 301 1015 q 471 1053 414 1053 q 735 963 592 1053 l 685 879 q 472 956 572 956 q 377 935 415 956 q 315 881 339 915 q 280 799 290 846 q 269 699 269 753 l 465 699 q 581 701 518 699 q 733 713 643 704 l 733 0 l 622 0 l 622 608 l 271 608 l 271 0 l 160 0 l 160 608 z "},"ﬂ":{"ha":833,"x_min":31,"x_max":733,"o":"m 160 608 l 31 608 l 31 699 l 158 699 q 246 979 158 892 q 485 1067 333 1067 q 733 1025 601 1067 l 733 0 l 622 0 l 622 949 q 486 969 558 969 q 372 947 415 969 q 307 888 329 925 q 277 801 285 850 q 269 699 269 753 l 444 699 l 444 608 l 271 608 l 271 0 l 160 0 l 160 608 z "},"g":{"ha":747,"x_min":63,"x_max":647,"o":"m 647 -67 q 636 -167 647 -118 q 594 -253 625 -215 q 506 -315 563 -292 q 358 -337 450 -337 q 257 -331 300 -336 q 175 -315 214 -325 q 104 -290 136 -304 l 133 -193 q 244 -229 188 -217 q 344 -242 300 -242 q 429 -232 393 -242 q 490 -199 465 -222 q 526 -139 514 -176 q 538 -46 538 -101 l 538 56 q 477 20 508 36 q 410 -7 446 4 q 342 -18 375 -18 q 138 73 213 -18 q 63 344 63 164 q 95 519 63 449 q 178 632 128 589 q 288 694 228 675 q 401 713 347 713 q 531 701 472 713 q 647 682 590 689 l 647 -67 m 354 79 q 417 90 385 79 q 478 117 449 101 q 538 153 508 132 l 538 596 q 499 606 521 600 q 454 612 479 608 q 401 615 429 615 q 301 594 343 615 q 233 538 260 574 q 193 453 206 501 q 181 350 181 404 q 191 253 181 301 q 224 165 201 204 q 278 103 246 126 q 354 79 310 79 z "},"ß":{"ha":832,"x_min":100,"x_max":797,"o":"m 100 614 q 113 806 100 724 q 161 944 126 889 q 256 1027 196 1000 q 408 1054 315 1054 q 507 1042 457 1054 q 597 1002 557 1031 q 663 928 638 974 q 689 817 689 883 q 672 717 689 756 q 627 653 654 678 q 569 614 600 629 q 511 586 538 599 q 467 558 485 574 q 449 515 449 542 q 474 474 449 493 q 540 434 500 454 q 624 391 579 414 q 707 338 668 368 q 772 270 746 308 q 797 181 797 232 q 772 84 797 122 q 708 23 747 46 q 622 -9 668 0 q 531 -18 575 -18 q 435 -11 490 -18 q 324 13 381 -4 l 346 114 q 453 87 410 93 q 532 81 496 81 q 583 85 557 81 q 631 99 610 89 q 665 128 651 110 q 679 176 679 147 q 653 233 678 208 q 589 278 628 257 q 506 322 550 300 q 422 372 461 344 q 356 435 382 400 q 331 518 331 469 q 350 588 331 561 q 398 632 369 614 q 460 663 426 650 q 522 694 493 676 q 570 737 551 711 q 589 804 589 763 q 570 876 589 847 q 523 922 551 906 q 461 946 494 939 q 399 953 428 953 q 292 926 331 953 q 237 851 254 900 q 215 731 219 803 q 211 571 211 660 l 211 0 l 100 0 l 100 614 z "},"`":{"ha":589,"x_min":139,"x_max":450,"o":"m 139 986 l 211 1071 l 450 897 l 403 835 l 139 986 z "},">":{"ha":668,"x_min":93,"x_max":611,"o":"m 93 236 l 453 424 l 93 597 l 93 703 l 611 460 l 611 403 l 93 117 l 93 236 z "},"≥":{"ha":635,"x_min":86,"x_max":563,"o":"m 86 275 l 399 475 l 86 661 l 86 778 l 563 503 l 563 438 l 86 154 l 86 275 m 86 97 l 563 97 l 563 0 l 86 0 l 86 97 z "},"«":{"ha":749,"x_min":54,"x_max":688,"o":"m 393 101 l 319 39 l 54 354 l 319 669 l 393 607 l 182 354 l 393 101 m 688 101 l 614 39 l 349 354 l 614 669 l 688 607 l 476 354 l 688 101 z "},"»":{"ha":749,"x_min":61,"x_max":694,"o":"m 567 354 l 356 607 l 429 669 l 694 354 l 429 39 l 356 101 l 567 354 m 272 354 l 61 607 l 135 669 l 400 354 l 135 39 l 61 101 l 272 354 z "},"‹":{"ha":454,"x_min":54,"x_max":393,"o":"m 393 101 l 319 39 l 54 354 l 319 669 l 393 607 l 182 354 l 393 101 z "},"›":{"ha":454,"x_min":61,"x_max":400,"o":"m 272 354 l 61 607 l 135 669 l 400 354 l 135 39 l 61 101 l 272 354 z "},"h":{"ha":758,"x_min":100,"x_max":663,"o":"m 100 1040 l 211 1053 l 211 611 q 294 660 253 639 q 378 697 335 681 q 461 713 421 713 q 556 699 518 713 q 618 656 594 686 q 652 575 642 625 q 663 450 663 525 l 663 0 l 551 0 l 551 438 q 550 512 551 479 q 538 567 549 544 q 506 603 528 590 q 446 615 485 615 q 368 599 410 615 q 289 563 326 583 q 211 514 251 542 l 211 0 l 100 0 l 100 1040 z "},"˝":{"ha":743,"x_min":139,"x_max":604,"o":"m 250 1053 l 382 1053 l 258 821 l 139 821 l 250 1053 m 472 1053 l 604 1053 l 486 821 l 361 821 l 472 1053 z "},"-":{"ha":543,"x_min":86,"x_max":457,"o":"m 86 408 l 457 408 l 457 306 l 86 306 l 86 408 z "},"i":{"ha":311,"x_min":82,"x_max":236,"o":"m 100 700 l 211 713 l 211 0 l 100 0 l 100 700 m 82 899 q 103 952 82 931 q 157 974 125 974 q 213 952 190 974 q 236 899 236 931 q 213 845 236 867 q 157 824 190 824 q 103 845 125 824 q 82 899 82 867 z "},"í":{"ha":311,"x_min":56,"x_max":367,"o":"m 100 700 l 211 713 l 211 0 l 100 0 l 100 700 m 294 1071 l 367 986 l 103 835 l 56 897 l 294 1071 z "},"î":{"ha":311,"x_min":-60,"x_max":371,"o":"m 100 700 l 211 713 l 211 0 l 100 0 l 100 700 m 128 1069 l 183 1069 l 371 879 l 315 833 l 156 968 l -4 833 l -60 879 l 128 1069 z "},"ï":{"ha":311,"x_min":-40,"x_max":351,"o":"m 100 700 l 211 713 l 211 0 l 100 0 l 100 700 m -40 899 q -19 952 -40 931 q 35 974 3 974 q 91 952 68 974 q 114 899 114 931 q 91 845 114 867 q 35 824 68 824 q -19 845 3 824 q -40 899 -40 867 m 197 899 q 219 952 197 931 q 272 974 240 974 q 328 952 306 974 q 351 899 351 931 q 328 845 351 867 q 272 824 306 824 q 219 845 240 824 q 197 899 197 867 z "},"ì":{"ha":311,"x_min":-56,"x_max":256,"o":"m 100 700 l 211 713 l 211 0 l 100 0 l 100 700 m -56 986 l 17 1071 l 256 897 l 208 835 l -56 986 z "},"j":{"ha":311,"x_min":-35,"x_max":232,"o":"m 211 714 l 211 13 q 165 -194 211 -112 q 22 -331 119 -275 l -35 -232 q 33 -177 7 -207 q 74 -113 60 -147 q 94 -44 89 -79 q 100 28 100 -8 l 100 697 l 211 714 m 78 899 q 99 952 78 931 q 153 974 121 974 q 209 952 186 974 q 232 899 232 931 q 209 845 232 867 q 153 824 186 824 q 99 845 121 824 q 78 899 78 867 z "},"k":{"ha":696,"x_min":100,"x_max":685,"o":"m 100 1040 l 211 1053 l 211 426 l 521 699 l 674 699 l 371 433 l 685 0 l 544 0 l 289 363 l 211 294 l 211 0 l 100 0 l 100 1040 z "},"l":{"ha":311,"x_min":100,"x_max":211,"o":"m 100 1040 l 211 1053 l 211 0 l 100 0 l 100 1040 z "},"<":{"ha":668,"x_min":57,"x_max":575,"o":"m 57 403 l 57 460 l 575 703 l 575 597 l 215 424 l 575 236 l 575 117 l 57 403 z "},"≤":{"ha":635,"x_min":72,"x_max":549,"o":"m 72 503 l 549 778 l 549 661 l 236 475 l 549 275 l 549 154 l 72 438 l 72 503 m 72 97 l 549 97 l 549 0 l 72 0 l 72 97 z "},"¬":{"ha":806,"x_min":96,"x_max":707,"o":"m 96 408 l 707 408 l 707 103 l 604 103 l 604 306 l 96 306 l 96 408 z "},"ł":{"ha":599,"x_min":7,"x_max":604,"o":"m 7 453 l 242 561 l 242 1040 l 353 1053 l 353 613 l 561 710 l 604 614 l 353 497 l 353 0 l 242 0 l 242 446 l 50 357 l 7 453 z "},"m":{"ha":1149,"x_min":93,"x_max":1053,"o":"m 101 572 q 93 686 101 619 l 197 700 l 213 613 q 286 661 250 640 q 364 697 322 682 q 449 713 406 713 q 558 688 518 713 q 618 606 599 664 q 737 679 675 646 q 865 713 799 713 q 953 699 917 713 q 1011 656 989 686 q 1043 575 1033 625 q 1053 450 1053 525 l 1053 0 l 942 0 l 942 438 q 940 512 942 479 q 931 567 939 544 q 903 603 922 590 q 850 615 885 615 q 790 606 818 615 q 731 581 761 597 q 636 513 700 564 l 636 0 l 525 0 l 525 438 q 524 512 525 479 q 514 567 522 544 q 487 603 506 590 q 433 615 468 615 q 358 600 397 615 q 285 564 319 585 q 213 515 250 543 l 213 0 l 101 0 l 101 572 z "},"¯":{"ha":842,"x_min":139,"x_max":703,"o":"m 139 919 l 703 919 l 703 822 l 139 822 l 139 919 z "},"−":{"ha":590,"x_min":96,"x_max":494,"o":"m 96 454 l 494 454 l 494 343 l 96 343 l 96 454 z "},"×":{"ha":781,"x_min":65,"x_max":715,"o":"m 331 349 l 65 615 l 124 675 l 390 408 l 657 675 l 715 615 l 449 349 l 715 83 l 657 24 l 390 290 l 124 24 l 65 83 l 331 349 z "},"n":{"ha":760,"x_min":94,"x_max":664,"o":"m 101 560 q 94 686 103 589 l 197 700 l 213 611 q 295 660 254 639 q 379 697 336 681 q 463 713 422 713 q 558 699 519 713 q 619 656 596 686 q 653 575 643 625 q 664 450 664 525 l 664 0 l 553 0 l 553 438 q 551 512 553 479 q 540 567 550 544 q 508 603 529 590 q 447 615 486 615 q 371 599 411 615 q 292 563 331 583 q 213 514 253 542 l 213 0 l 101 0 l 101 560 z "},"≠":{"ha":821,"x_min":76,"x_max":743,"o":"m 593 744 l 538 590 l 743 590 l 743 493 l 501 493 l 433 306 l 743 306 l 743 208 l 399 208 l 335 32 l 243 65 l 294 208 l 76 208 l 76 306 l 331 306 l 399 493 l 76 493 l 76 590 l 433 590 l 501 778 l 593 744 z "},"ñ":{"ha":760,"x_min":94,"x_max":664,"o":"m 101 560 q 94 686 103 589 l 197 700 l 213 611 q 295 660 254 639 q 379 697 336 681 q 463 713 422 713 q 558 699 519 713 q 619 656 596 686 q 653 575 643 625 q 664 450 664 525 l 664 0 l 553 0 l 553 438 q 551 512 553 479 q 540 567 550 544 q 508 603 529 590 q 447 615 486 615 q 371 599 411 615 q 292 563 331 583 q 213 514 253 542 l 213 0 l 101 0 l 101 560 m 638 908 q 565 841 600 861 q 494 821 529 821 q 433 829 460 821 q 383 848 406 838 q 341 867 360 858 q 306 876 322 876 q 257 863 278 876 q 218 825 236 849 l 146 886 q 222 951 182 935 q 300 967 263 967 q 354 958 329 967 q 401 938 379 949 q 442 919 424 928 q 479 911 461 911 q 530 928 511 911 q 563 965 549 946 l 638 908 z "},"#":{"ha":794,"x_min":78,"x_max":725,"o":"m 158 318 l 78 318 l 78 415 l 192 415 l 226 518 l 101 518 l 101 615 l 260 615 l 322 794 l 419 763 l 368 615 l 536 615 l 600 801 l 697 769 l 643 615 l 725 615 l 725 518 l 610 518 l 575 415 l 671 415 l 671 318 l 542 318 l 474 121 l 379 158 l 433 318 l 265 318 l 196 114 l 101 151 l 158 318 m 467 415 l 503 518 l 335 518 l 299 415 l 467 415 z "},"o":{"ha":797,"x_min":61,"x_max":736,"o":"m 179 346 q 240 145 179 211 q 403 79 300 79 q 561 144 504 79 q 618 340 618 210 q 558 547 618 479 q 393 615 497 615 q 234 548 289 615 q 179 346 179 481 m 61 347 q 94 523 61 453 q 179 635 128 593 q 290 695 231 678 q 401 713 349 713 q 510 697 451 713 q 619 640 569 681 q 703 530 669 599 q 736 356 736 461 q 702 174 736 246 q 617 59 668 101 q 506 -1 565 17 q 394 -18 446 -18 q 283 -1 342 -18 q 176 56 225 15 q 94 168 126 97 q 61 347 61 239 z "},"ó":{"ha":797,"x_min":61,"x_max":736,"o":"m 179 346 q 240 145 179 211 q 403 79 300 79 q 561 144 504 79 q 618 340 618 210 q 558 547 618 479 q 393 615 497 615 q 234 548 289 615 q 179 346 179 481 m 61 347 q 94 523 61 453 q 179 635 128 593 q 290 695 231 678 q 401 713 349 713 q 510 697 451 713 q 619 640 569 681 q 703 530 669 599 q 736 356 736 461 q 702 174 736 246 q 617 59 668 101 q 506 -1 565 17 q 394 -18 446 -18 q 283 -1 342 -18 q 176 56 225 15 q 94 168 126 97 q 61 347 61 239 m 490 1071 l 563 986 l 299 835 l 251 897 l 490 1071 z "},"ô":{"ha":797,"x_min":61,"x_max":736,"o":"m 179 346 q 240 145 179 211 q 403 79 300 79 q 561 144 504 79 q 618 340 618 210 q 558 547 618 479 q 393 615 497 615 q 234 548 289 615 q 179 346 179 481 m 61 347 q 94 523 61 453 q 179 635 128 593 q 290 695 231 678 q 401 713 349 713 q 510 697 451 713 q 619 640 569 681 q 703 530 669 599 q 736 356 736 461 q 702 174 736 246 q 617 59 668 101 q 506 -1 565 17 q 394 -18 446 -18 q 283 -1 342 -18 q 176 56 225 15 q 94 168 126 97 q 61 347 61 239 m 375 1069 l 431 1069 l 618 879 l 563 833 l 403 968 l 243 833 l 188 879 l 375 1069 z "},"ö":{"ha":797,"x_min":61,"x_max":736,"o":"m 179 346 q 240 145 179 211 q 403 79 300 79 q 561 144 504 79 q 618 340 618 210 q 558 547 618 479 q 393 615 497 615 q 234 548 289 615 q 179 346 179 481 m 61 347 q 94 523 61 453 q 179 635 128 593 q 290 695 231 678 q 401 713 349 713 q 510 697 451 713 q 619 640 569 681 q 703 530 669 599 q 736 356 736 461 q 702 174 736 246 q 617 59 668 101 q 506 -1 565 17 q 394 -18 446 -18 q 283 -1 342 -18 q 176 56 225 15 q 94 168 126 97 q 61 347 61 239 m 211 899 q 233 952 211 931 q 286 974 254 974 q 342 952 319 974 q 365 899 365 931 q 342 845 365 867 q 286 824 319 824 q 233 845 254 824 q 211 899 211 867 m 449 899 q 470 952 449 931 q 524 974 492 974 q 580 952 557 974 q 603 899 603 931 q 580 845 603 867 q 524 824 557 824 q 470 845 492 824 q 449 899 449 867 z "},"œ":{"ha":1247,"x_min":61,"x_max":1196,"o":"m 1161 19 q 935 -18 1046 -18 q 778 14 847 -18 q 667 115 708 46 q 606 52 640 78 q 536 10 572 26 q 463 -12 500 -6 q 393 -18 426 -18 q 283 -3 342 -18 q 176 53 225 13 q 94 166 126 94 q 61 350 61 238 q 92 519 61 450 q 172 631 124 588 q 279 693 221 674 q 393 713 338 713 q 463 707 426 713 q 537 687 500 701 q 608 647 574 672 q 669 582 642 622 q 938 713 750 713 q 1054 686 1006 713 q 1134 615 1103 660 q 1181 509 1165 569 q 1196 382 1196 449 l 1175 321 l 726 321 l 726 290 q 744 213 731 250 q 784 145 757 175 q 853 97 811 115 q 956 79 896 79 q 1140 110 1056 79 l 1161 19 m 618 350 q 557 550 618 485 q 393 615 496 615 q 232 547 285 615 q 179 350 179 479 q 235 148 179 217 q 393 79 290 79 q 559 142 500 79 q 618 350 618 206 m 1081 410 q 1076 453 1081 419 q 1057 522 1072 486 q 1010 587 1042 558 q 925 615 979 615 q 829 591 867 615 q 769 533 792 567 q 739 465 747 500 q 731 410 731 431 l 1081 410 z "},"ò":{"ha":797,"x_min":61,"x_max":736,"o":"m 179 346 q 240 145 179 211 q 403 79 300 79 q 561 144 504 79 q 618 340 618 210 q 558 547 618 479 q 393 615 497 615 q 234 548 289 615 q 179 346 179 481 m 61 347 q 94 523 61 453 q 179 635 128 593 q 290 695 231 678 q 401 713 349 713 q 510 697 451 713 q 619 640 569 681 q 703 530 669 599 q 736 356 736 461 q 702 174 736 246 q 617 59 668 101 q 506 -1 565 17 q 394 -18 446 -18 q 283 -1 342 -18 q 176 56 225 15 q 94 168 126 97 q 61 347 61 239 m 215 986 l 288 1071 l 526 897 l 479 835 l 215 986 z "},"ª":{"ha":532,"x_min":54,"x_max":449,"o":"m 350 743 q 222 728 292 740 q 170 703 192 721 q 149 653 149 686 q 165 607 149 621 q 214 593 182 593 q 287 608 256 593 q 350 650 318 624 l 350 743 m 349 578 q 269 533 301 544 q 204 522 238 522 q 146 530 174 522 q 98 553 118 538 q 66 593 78 568 q 54 653 54 618 q 74 716 54 689 q 126 761 94 743 q 203 791 157 779 q 350 808 250 803 q 350 864 350 840 q 344 903 350 888 q 321 926 338 918 q 271 933 304 933 q 190 928 228 933 q 117 914 153 922 l 101 993 q 199 1008 147 1003 q 286 1014 250 1014 q 364 1000 333 1014 q 412 962 394 986 q 436 907 429 938 q 443 843 443 876 l 443 618 q 449 533 443 597 l 358 526 l 349 578 z "},"º":{"ha":593,"x_min":61,"x_max":532,"o":"m 156 767 q 193 642 156 685 q 300 600 231 600 q 404 642 369 600 q 439 763 439 685 q 401 890 439 846 q 293 935 364 935 q 189 891 222 935 q 156 767 156 847 m 61 767 q 85 886 61 839 q 145 962 110 933 q 222 1002 181 990 q 299 1014 264 1014 q 374 1003 333 1014 q 449 965 414 992 q 508 891 485 938 q 532 772 532 844 q 508 650 532 699 q 447 572 483 601 q 370 531 411 543 q 294 519 329 519 q 217 531 258 519 q 142 569 176 542 q 84 645 107 597 q 61 767 61 693 z "},"ø":{"ha":797,"x_min":61,"x_max":746,"o":"m 140 90 q 83 195 104 132 q 61 347 61 258 q 94 523 61 453 q 179 635 128 593 q 290 695 231 678 q 401 713 349 713 q 505 699 450 713 q 608 649 560 685 l 682 736 l 746 683 l 668 590 q 717 492 699 550 q 736 356 736 435 q 702 174 736 246 q 617 59 668 101 q 506 -1 565 17 q 394 -18 446 -18 q 298 -6 349 -18 q 203 35 247 6 l 135 -46 l 71 7 l 140 90 m 179 346 q 215 179 179 243 l 539 565 q 393 615 482 615 q 234 548 289 615 q 179 346 179 481 m 618 340 q 610 426 618 388 q 589 496 603 464 l 271 117 q 331 88 297 97 q 403 79 364 79 q 561 144 504 79 q 618 340 618 210 z "},"õ":{"ha":797,"x_min":61,"x_max":736,"o":"m 179 346 q 240 145 179 211 q 403 79 300 79 q 561 144 504 79 q 618 340 618 210 q 558 547 618 479 q 393 615 497 615 q 234 548 289 615 q 179 346 179 481 m 61 347 q 94 523 61 453 q 179 635 128 593 q 290 695 231 678 q 401 713 349 713 q 510 697 451 713 q 619 640 569 681 q 703 530 669 599 q 736 356 736 461 q 702 174 736 246 q 617 59 668 101 q 506 -1 565 17 q 394 -18 446 -18 q 283 -1 342 -18 q 176 56 225 15 q 94 168 126 97 q 61 347 61 239 m 649 921 q 576 853 611 874 q 506 833 540 833 q 444 842 471 833 q 394 860 417 850 q 352 880 371 871 q 317 889 333 889 q 268 875 289 889 q 229 838 247 861 l 157 899 q 233 963 193 947 q 311 979 274 979 q 365 970 340 979 q 413 951 390 961 q 453 932 435 940 q 490 924 472 924 q 541 941 522 924 q 574 978 560 958 l 649 921 z "},"p":{"ha":750,"x_min":94,"x_max":688,"o":"m 101 538 q 94 686 101 588 l 197 700 l 210 625 q 267 667 238 649 q 333 699 297 686 q 408 713 368 713 q 516 693 465 713 q 605 631 567 674 q 665 519 643 588 q 688 350 688 450 q 658 178 688 249 q 580 65 628 108 q 472 1 532 21 q 349 -18 411 -18 q 213 -1 282 -17 l 213 -303 l 101 -317 l 101 538 m 349 79 q 449 100 407 79 q 517 158 490 121 q 557 242 544 194 q 569 344 569 290 q 560 442 569 393 q 531 528 551 490 q 478 591 511 567 q 396 615 444 615 q 328 602 360 615 q 267 570 296 589 q 213 528 239 551 l 213 101 q 247 91 228 96 q 291 83 265 86 q 349 79 317 79 z "},"¶":{"ha":731,"x_min":54,"x_max":610,"o":"m 499 850 l 399 850 l 399 369 l 332 369 q 209 394 261 369 q 122 459 157 418 q 71 552 88 500 q 54 658 54 604 q 68 789 54 735 q 113 878 82 843 q 195 931 144 914 q 319 947 246 947 l 610 947 l 610 -1 q 601 -109 610 -64 q 572 -192 592 -154 q 521 -262 553 -229 q 443 -329 489 -294 l 365 -246 q 433 -183 407 -214 q 474 -119 460 -151 q 494 -55 489 -87 q 499 14 499 -22 l 499 850 z "},"(":{"ha":465,"x_min":54,"x_max":446,"o":"m 379 -364 q 258 -246 317 -314 q 155 -88 200 -178 q 82 116 110 1 q 54 376 54 231 q 82 636 54 522 q 155 839 110 750 q 258 994 200 928 q 379 1111 317 1061 l 446 1047 q 315 883 365 968 q 235 711 264 797 q 195 540 206 625 q 185 375 185 456 q 195 210 185 294 q 235 38 206 125 q 315 -134 264 -49 q 446 -300 365 -219 l 379 -364 z "},")":{"ha":465,"x_min":19,"x_max":411,"o":"m 19 -300 q 151 -134 100 -219 q 231 38 201 -49 q 270 210 260 125 q 281 375 281 294 q 270 540 281 456 q 231 711 260 625 q 151 883 201 797 q 19 1047 100 968 l 86 1111 q 207 994 149 1061 q 310 839 265 928 q 383 636 356 750 q 411 376 411 522 q 383 116 411 231 q 310 -88 356 1 q 207 -246 265 -178 q 86 -364 149 -314 l 19 -300 z "},"%":{"ha":1063,"x_min":64,"x_max":1001,"o":"m 64 750 q 72 817 64 778 q 104 892 81 857 q 170 953 128 928 q 279 978 213 978 q 383 952 343 978 q 445 890 424 926 q 474 815 467 854 q 482 750 482 776 q 474 685 482 724 q 445 610 467 646 q 383 548 424 574 q 279 522 343 522 q 170 547 213 522 q 104 608 128 572 q 72 683 81 643 q 64 750 64 722 m 382 750 q 378 798 382 774 q 363 842 374 822 q 329 876 351 863 q 272 889 307 889 q 219 876 240 889 q 186 842 199 863 q 168 798 174 822 q 163 750 163 774 q 168 702 163 726 q 186 658 174 678 q 219 624 199 638 q 272 611 240 611 q 329 624 307 611 q 363 658 351 638 q 378 702 374 678 q 382 750 382 726 m 583 210 q 592 277 583 238 q 624 352 600 317 q 690 413 647 388 q 799 438 732 438 q 903 412 863 438 q 965 350 943 386 q 994 275 986 314 q 1001 210 1001 236 q 994 144 1001 183 q 965 69 986 106 q 903 8 943 33 q 799 -18 863 -18 q 690 7 732 -18 q 624 67 647 32 q 592 142 600 103 q 583 210 583 182 m 901 210 q 897 258 901 233 q 882 302 893 282 q 849 335 871 322 q 792 349 826 349 q 739 335 760 349 q 706 302 718 322 q 688 258 693 282 q 682 210 682 233 q 688 162 682 186 q 706 117 693 138 q 739 84 718 97 q 792 71 760 71 q 849 84 826 71 q 882 117 871 97 q 897 162 893 138 q 901 210 901 186 m 836 1032 l 925 965 l 204 -62 l 115 3 l 836 1032 z "},".":{"ha":308,"x_min":71,"x_max":239,"o":"m 71 82 q 94 140 71 115 q 153 164 118 164 q 214 140 189 164 q 239 82 239 115 q 214 24 239 47 q 153 0 189 0 q 94 24 118 0 q 71 82 71 47 z "},"·":{"ha":311,"x_min":74,"x_max":238,"o":"m 74 546 q 97 604 74 581 q 156 628 121 628 q 214 604 190 628 q 238 546 238 581 q 214 488 238 511 q 156 464 190 464 q 97 488 121 464 q 74 546 74 511 z "},"‰":{"ha":1529,"x_min":68,"x_max":1475,"o":"m 68 750 q 76 817 68 778 q 108 892 85 857 q 174 953 132 928 q 283 978 217 978 q 388 952 347 978 q 449 890 428 926 q 478 815 471 854 q 486 750 486 776 q 478 685 486 724 q 449 610 471 646 q 388 548 428 574 q 283 522 347 522 q 174 547 217 522 q 108 608 132 572 q 76 683 85 643 q 68 750 68 722 m 386 750 q 382 798 386 774 q 367 842 378 822 q 333 876 356 863 q 276 889 311 889 q 224 876 244 889 q 190 842 203 863 q 172 798 178 822 q 167 750 167 774 q 172 702 167 726 q 190 658 178 678 q 224 624 203 638 q 276 611 244 611 q 333 624 311 611 q 367 658 356 638 q 382 702 378 678 q 386 750 386 726 m 588 210 q 596 277 588 238 q 628 352 604 317 q 694 413 651 388 q 803 438 736 438 q 907 412 867 438 q 969 350 947 386 q 998 275 990 314 q 1006 210 1006 236 q 998 144 1006 183 q 969 69 990 106 q 907 8 947 33 q 803 -18 867 -18 q 694 7 736 -18 q 628 67 651 32 q 596 142 604 103 q 588 210 588 182 m 906 210 q 901 258 906 233 q 886 302 897 282 q 853 335 875 322 q 796 349 831 349 q 743 335 764 349 q 710 302 722 322 q 692 258 697 282 q 686 210 686 233 q 692 162 686 186 q 710 117 697 138 q 743 84 722 97 q 796 71 764 71 q 853 84 831 71 q 886 117 875 97 q 901 162 897 138 q 906 210 906 186 m 1057 210 q 1065 277 1057 238 q 1097 352 1074 317 q 1163 413 1121 388 q 1272 438 1206 438 q 1376 412 1336 438 q 1438 350 1417 386 q 1467 275 1460 314 q 1475 210 1475 236 q 1467 144 1475 183 q 1438 69 1460 106 q 1376 8 1417 33 q 1272 -18 1336 -18 q 1163 7 1206 -18 q 1097 67 1121 32 q 1065 142 1074 103 q 1057 210 1057 182 m 1375 210 q 1371 258 1375 233 q 1356 302 1367 282 q 1322 335 1344 322 q 1265 349 1300 349 q 1213 335 1233 349 q 1179 302 1192 322 q 1161 258 1167 282 q 1156 210 1156 233 q 1161 162 1156 186 q 1179 117 1167 138 q 1213 84 1192 97 q 1265 71 1233 71 q 1322 84 1300 71 q 1356 117 1344 97 q 1371 162 1367 138 q 1375 210 1375 186 m 840 1032 l 929 965 l 208 -62 l 119 3 l 840 1032 z "},"+":{"ha":733,"x_min":61,"x_max":672,"o":"m 61 408 l 311 408 l 311 658 l 422 658 l 422 408 l 672 408 l 672 306 l 422 306 l 422 56 l 311 56 l 311 306 l 61 306 l 61 408 z "},"±":{"ha":765,"x_min":76,"x_max":689,"o":"m 78 103 l 326 103 l 326 306 l 76 306 l 76 408 l 326 408 l 326 653 l 438 653 l 438 408 l 688 408 l 688 306 l 438 306 l 438 103 l 689 103 l 689 0 l 78 0 l 78 103 z "},"q":{"ha":746,"x_min":61,"x_max":646,"o":"m 536 56 q 441 4 496 26 q 340 -18 386 -18 q 233 1 283 -18 q 144 64 182 21 q 83 176 106 107 q 61 344 61 244 q 92 508 61 439 q 173 623 124 578 q 283 690 222 668 q 400 713 343 713 q 486 706 453 713 q 544 693 519 700 q 592 680 569 686 q 646 674 614 674 l 646 -304 l 536 -318 l 536 56 m 353 79 q 415 90 383 79 q 476 117 447 101 q 536 153 506 132 l 536 596 q 506 606 524 600 q 464 612 490 608 q 400 615 438 615 q 300 594 342 615 q 231 537 258 574 q 192 452 204 500 q 179 350 179 404 q 190 253 179 301 q 222 165 200 204 q 276 103 244 126 q 353 79 308 79 z "},"?":{"ha":567,"x_min":83,"x_max":507,"o":"m 117 428 q 138 501 117 474 q 187 545 158 528 q 249 578 215 563 q 313 616 283 594 q 363 670 343 638 q 382 756 382 703 q 338 867 382 826 q 218 907 293 907 q 178 904 197 907 q 111 886 160 901 l 83 993 q 168 1015 142 1011 q 228 1018 194 1018 q 338 1000 288 1018 q 426 950 389 982 q 485 872 464 918 q 507 769 507 825 q 486 657 507 701 q 435 583 465 613 q 367 533 404 553 q 300 497 331 513 q 249 463 269 481 q 228 417 228 446 l 228 253 l 117 253 l 117 428 m 89 82 q 113 140 89 115 q 171 164 136 164 q 232 140 207 164 q 257 82 257 115 q 232 24 257 47 q 171 0 207 0 q 113 24 136 0 q 89 82 89 47 z "},"¿":{"ha":556,"x_min":54,"x_max":478,"o":"m 475 603 q 451 545 475 569 q 393 521 428 521 q 332 545 357 521 q 307 603 307 569 q 332 661 307 638 q 393 685 357 685 q 451 661 428 685 q 475 603 475 638 m 333 426 l 444 426 l 444 249 q 425 174 444 200 q 376 130 406 147 q 312 99 346 113 q 248 66 278 86 q 199 13 218 46 q 179 -76 179 -19 q 224 -187 179 -147 q 343 -228 268 -228 q 450 -207 394 -228 l 478 -314 q 333 -339 415 -339 q 223 -321 274 -339 q 135 -271 172 -303 q 76 -193 97 -239 q 54 -90 54 -147 q 74 20 54 -25 q 126 99 93 65 q 224 163 160 132 q 311 210 289 194 q 333 249 333 226 l 333 426 z "},"\"":{"ha":472,"x_min":83,"x_max":389,"o":"m 278 1053 l 389 1053 l 389 713 l 278 713 l 278 1053 m 83 1053 l 194 1053 l 194 713 l 83 713 l 83 1053 z "},"„":{"ha":485,"x_min":33,"x_max":397,"o":"m 86 168 l 200 181 l 200 74 q 188 -2 200 40 q 160 -82 175 -44 q 119 -171 142 -126 l 33 -156 q 60 -79 47 -117 q 78 -10 69 -47 q 86 57 86 28 l 86 168 m 283 168 l 397 181 l 397 74 q 385 -2 397 40 q 357 -82 372 -44 q 317 -171 339 -126 l 231 -156 q 257 -79 244 -117 q 275 -10 267 -47 q 283 57 283 28 l 283 168 z "},"“":{"ha":485,"x_min":81,"x_max":450,"o":"m 283 815 q 296 891 283 849 q 324 971 308 933 q 364 1060 340 1015 l 450 1044 q 424 967 435 1004 q 405 898 413 935 q 397 832 397 861 l 397 721 l 283 708 l 283 815 m 81 815 q 93 891 81 849 q 121 971 106 933 q 161 1060 138 1015 l 247 1044 q 221 967 232 1004 q 202 898 210 935 q 194 832 194 861 l 194 721 l 81 708 l 81 815 z "},"”":{"ha":493,"x_min":61,"x_max":440,"o":"m 326 1053 l 440 1065 l 440 958 q 428 883 440 925 q 400 803 415 840 q 360 714 382 758 l 274 729 q 300 806 288 768 q 318 875 310 838 q 326 942 326 913 l 326 1053 m 114 1053 l 228 1065 l 228 958 q 215 883 228 925 q 188 803 203 840 q 147 714 169 758 l 61 729 q 88 806 75 768 q 106 875 97 838 q 114 942 114 913 l 114 1053 z "},"‘":{"ha":279,"x_min":81,"x_max":247,"o":"m 81 826 q 93 902 81 860 q 121 982 106 944 q 161 1071 138 1026 l 247 1056 q 221 978 232 1015 q 202 909 210 946 q 194 843 194 872 l 194 732 l 81 719 l 81 826 z "},"’":{"ha":283,"x_min":64,"x_max":231,"o":"m 117 1057 l 231 1069 l 231 963 q 218 887 231 929 q 190 807 206 844 q 150 718 172 763 l 64 733 q 90 810 78 772 q 108 879 100 842 q 117 946 117 917 l 117 1057 z "},"‚":{"ha":288,"x_min":33,"x_max":200,"o":"m 86 168 l 200 181 l 200 74 q 188 -2 200 40 q 160 -82 175 -44 q 119 -171 142 -126 l 33 -156 q 60 -79 47 -117 q 78 -10 69 -47 q 86 57 86 28 l 86 168 z "},"'":{"ha":278,"x_min":83,"x_max":194,"o":"m 83 1053 l 194 1053 l 194 713 l 83 713 l 83 1053 z "},"r":{"ha":468,"x_min":94,"x_max":446,"o":"m 101 586 q 94 686 101 618 l 197 700 l 208 599 l 210 599 q 258 654 235 631 q 308 695 282 678 q 357 713 333 713 q 446 706 389 714 l 421 599 q 357 606 375 607 q 307 583 333 606 q 261 536 281 561 q 213 467 236 506 l 213 0 l 101 0 l 101 586 z "},"®":{"ha":1085,"x_min":69,"x_max":1015,"o":"m 69 474 q 106 658 69 571 q 208 808 143 744 q 358 910 272 872 q 542 947 443 947 q 726 910 639 947 q 876 808 813 872 q 978 658 940 744 q 1015 474 1015 571 q 978 290 1015 375 q 876 140 940 204 q 726 38 813 75 q 542 1 639 1 q 358 38 443 1 q 208 140 272 75 q 106 290 143 204 q 69 474 69 375 m 149 474 q 180 322 149 393 q 265 197 211 250 q 390 112 318 143 q 542 81 461 81 q 695 112 624 81 q 820 197 767 143 q 904 322 874 250 q 935 474 935 393 q 904 627 935 556 q 820 752 874 699 q 695 836 767 806 q 542 867 624 867 q 390 836 461 867 q 265 752 318 806 q 180 627 211 699 q 149 474 149 556 m 385 754 l 515 754 q 655 717 603 754 q 707 603 707 681 q 691 524 707 554 q 653 476 675 494 q 601 450 631 457 l 599 444 q 604 440 601 443 q 610 433 607 438 q 618 424 613 429 l 771 221 l 664 221 l 508 433 l 474 433 l 474 221 l 385 221 l 385 754 m 614 592 q 590 653 614 638 q 515 669 565 669 l 474 669 l 474 518 l 526 518 q 593 538 574 518 q 614 592 613 557 z "},"˚":{"ha":579,"x_min":139,"x_max":440,"o":"m 139 938 q 150 997 139 969 q 181 1045 161 1025 q 228 1077 201 1065 q 286 1089 254 1089 q 396 1046 351 1089 q 440 938 440 1003 q 428 878 440 906 q 396 831 417 851 q 347 799 375 811 q 286 788 318 788 q 228 799 254 788 q 181 831 201 811 q 150 878 161 851 q 139 938 139 906 m 210 938 q 233 881 210 904 q 289 858 256 858 q 346 881 322 858 q 369 938 369 904 q 346 994 369 971 q 289 1018 322 1018 q 233 994 256 1018 q 210 938 210 971 z "},"s":{"ha":579,"x_min":57,"x_max":529,"o":"m 478 585 q 374 609 419 603 q 292 615 329 615 q 210 592 243 615 q 178 531 178 568 q 207 474 179 497 q 272 431 235 450 q 353 390 308 413 q 438 340 399 368 q 503 274 478 313 q 529 181 528 235 q 503 84 528 122 q 441 23 479 46 q 358 -9 403 0 q 275 -18 314 -18 q 172 -12 225 -18 q 57 11 118 -7 l 78 111 q 192 87 140 94 q 276 79 243 79 q 326 85 301 79 q 369 101 350 90 q 401 128 389 111 q 413 165 413 144 q 386 231 411 204 q 322 280 361 258 q 237 323 282 301 q 152 373 192 344 q 86 441 113 401 q 60 539 60 481 q 81 613 60 581 q 137 667 103 646 q 212 701 171 689 q 292 713 253 713 q 382 706 332 713 q 497 683 432 700 l 478 585 z "},"š":{"ha":579,"x_min":57,"x_max":529,"o":"m 478 585 q 374 609 419 603 q 292 615 329 615 q 210 592 243 615 q 178 531 178 568 q 207 474 179 497 q 272 431 235 450 q 353 390 308 413 q 438 340 399 368 q 503 274 478 313 q 529 181 528 235 q 503 84 528 122 q 441 23 479 46 q 358 -9 403 0 q 275 -18 314 -18 q 172 -12 225 -18 q 57 11 118 -7 l 78 111 q 192 87 140 94 q 276 79 243 79 q 326 85 301 79 q 369 101 350 90 q 401 128 389 111 q 413 165 413 144 q 386 231 411 204 q 322 280 361 258 q 237 323 282 301 q 152 373 192 344 q 86 441 113 401 q 60 539 60 481 q 81 613 60 581 q 137 667 103 646 q 212 701 171 689 q 292 713 253 713 q 382 706 332 713 q 497 683 432 700 l 478 585 m 72 1024 l 128 1069 l 288 935 l 447 1069 l 503 1024 l 315 833 l 260 833 l 72 1024 z "},"§":{"ha":757,"x_min":72,"x_max":690,"o":"m 611 938 q 483 956 532 951 q 389 960 433 960 q 242 927 286 958 q 197 831 197 896 q 234 747 197 782 q 325 683 271 711 q 444 627 379 656 q 563 564 508 599 q 653 481 617 529 q 690 363 690 432 q 678 286 690 321 q 648 223 667 251 q 605 172 629 194 q 554 131 581 149 q 653 44 615 93 q 690 -81 690 -6 q 651 -213 690 -162 q 556 -292 613 -264 q 435 -328 499 -319 q 324 -337 372 -337 q 202 -328 268 -337 q 72 -293 136 -318 l 100 -181 q 224 -217 169 -207 q 324 -226 279 -226 q 423 -219 378 -226 q 501 -197 468 -212 q 553 -157 535 -182 q 572 -96 572 -132 q 535 -9 572 -44 q 444 54 499 26 q 326 110 390 82 q 208 174 263 139 q 116 260 153 210 q 79 388 79 311 q 91 453 79 422 q 122 512 103 485 q 167 563 142 539 q 219 606 192 586 q 119 697 160 644 q 79 831 79 750 q 99 918 79 875 q 157 995 118 961 q 253 1049 196 1029 q 389 1069 311 1069 q 498 1064 439 1069 q 631 1042 557 1058 l 611 938 m 571 347 q 547 412 571 382 q 487 467 524 442 q 406 513 450 492 q 321 551 363 533 q 230 474 263 515 q 197 388 197 432 q 222 324 197 353 q 283 269 246 294 q 365 222 319 244 q 451 182 410 200 q 539 260 507 217 q 571 347 571 304 z "},";":{"ha":349,"x_min":67,"x_max":271,"o":"m 103 549 q 126 606 103 582 q 185 631 150 631 q 246 606 221 631 q 271 549 271 582 q 246 490 271 514 q 185 467 221 467 q 126 490 150 467 q 103 549 103 514 m 114 165 l 232 165 l 154 -193 l 67 -176 l 114 165 z "},"/":{"ha":708,"x_min":42,"x_max":667,"o":"m 563 1181 l 667 1142 l 146 -290 l 42 -251 l 563 1181 z "},"Á":{"ha":847,"x_min":26,"x_max":821,"o":"m 351 947 l 496 947 l 821 0 l 700 0 l 617 253 l 232 253 l 147 0 l 26 0 l 351 947 m 579 364 l 426 836 l 422 836 l 268 364 l 579 364 m 524 1303 l 596 1218 l 332 1067 l 285 1129 l 524 1303 z "},"£":{"ha":771,"x_min":69,"x_max":704,"o":"m 69 82 l 192 103 l 168 426 l 86 418 l 76 517 l 161 528 l 149 707 q 161 809 144 763 q 215 889 178 856 q 310 941 253 922 q 444 960 367 960 q 539 954 494 960 q 615 942 583 949 q 685 924 653 933 l 656 829 q 590 846 625 839 q 523 858 561 853 q 444 863 485 863 q 369 855 404 863 q 311 828 335 847 q 275 776 288 808 q 267 692 263 743 l 278 538 l 608 538 l 608 433 l 285 433 l 310 111 l 704 111 l 704 0 l 267 0 q 203 -3 238 0 q 83 -18 168 -6 l 69 82 z "},"t":{"ha":506,"x_min":24,"x_max":481,"o":"m 263 907 l 263 699 l 464 699 l 464 608 l 263 608 l 263 238 q 265 161 263 192 q 274 113 267 131 q 293 87 281 94 q 325 79 306 79 q 447 118 378 81 l 481 33 q 395 -8 435 3 q 317 -18 356 -18 q 188 34 225 -18 q 151 207 151 86 l 151 608 l 24 608 l 24 699 l 151 699 l 151 893 l 263 907 z "},"˜":{"ha":769,"x_min":139,"x_max":631,"o":"m 631 921 q 558 853 593 874 q 488 833 522 833 q 426 842 453 833 q 376 860 399 850 q 334 880 353 871 q 299 889 315 889 q 250 875 271 889 q 211 838 229 861 l 139 899 q 215 963 175 947 q 293 979 256 979 q 347 970 322 979 q 394 951 372 961 q 435 932 417 940 q 472 924 454 924 q 523 941 504 924 q 556 978 542 958 l 631 921 z "},"™":{"ha":1251,"x_min":63,"x_max":1113,"o":"m 218 985 l 63 985 l 63 1054 l 456 1054 l 456 985 l 300 985 l 300 485 l 218 485 l 218 985 m 547 1054 l 636 1054 l 814 586 l 815 586 l 994 1054 l 1083 1054 l 1113 485 l 1042 485 l 1018 853 q 1017 879 1017 868 q 1019 899 1018 890 q 1024 915 1021 908 l 1022 915 l 850 485 l 779 485 l 606 915 l 604 915 q 607 899 606 908 q 609 879 608 890 q 610 853 610 868 l 588 485 l 517 485 l 547 1054 z "},"u":{"ha":731,"x_min":96,"x_max":636,"o":"m 518 76 l 515 76 q 479 51 503 67 q 425 19 456 35 q 358 -7 394 4 q 283 -18 321 -18 q 196 -5 232 -18 q 138 39 160 8 q 106 119 115 69 q 96 244 96 169 l 96 699 l 207 699 l 207 261 q 208 186 207 219 q 218 129 210 153 q 245 92 226 106 q 299 79 264 79 q 374 94 335 79 q 444 129 413 110 q 518 179 482 151 l 518 699 l 629 699 l 629 90 q 636 0 631 40 l 526 -11 l 518 76 z "},"ú":{"ha":731,"x_min":96,"x_max":636,"o":"m 518 76 l 515 76 q 479 51 503 67 q 425 19 456 35 q 358 -7 394 4 q 283 -18 321 -18 q 196 -5 232 -18 q 138 39 160 8 q 106 119 115 69 q 96 244 96 169 l 96 699 l 207 699 l 207 261 q 208 186 207 219 q 218 129 210 153 q 245 92 226 106 q 299 79 264 79 q 374 94 335 79 q 444 129 413 110 q 518 179 482 151 l 518 699 l 629 699 l 629 90 q 636 0 631 40 l 526 -11 l 518 76 m 458 1071 l 531 986 l 267 835 l 219 897 l 458 1071 z "},"û":{"ha":731,"x_min":96,"x_max":636,"o":"m 518 76 l 515 76 q 479 51 503 67 q 425 19 456 35 q 358 -7 394 4 q 283 -18 321 -18 q 196 -5 232 -18 q 138 39 160 8 q 106 119 115 69 q 96 244 96 169 l 96 699 l 207 699 l 207 261 q 208 186 207 219 q 218 129 210 153 q 245 92 226 106 q 299 79 264 79 q 374 94 335 79 q 444 129 413 110 q 518 179 482 151 l 518 699 l 629 699 l 629 90 q 636 0 631 40 l 526 -11 l 518 76 m 338 1069 l 393 1069 l 581 879 l 525 833 l 365 968 l 206 833 l 150 879 l 338 1069 z "},"ü":{"ha":731,"x_min":96,"x_max":636,"o":"m 518 76 l 515 76 q 479 51 503 67 q 425 19 456 35 q 358 -7 394 4 q 283 -18 321 -18 q 196 -5 232 -18 q 138 39 160 8 q 106 119 115 69 q 96 244 96 169 l 96 699 l 207 699 l 207 261 q 208 186 207 219 q 218 129 210 153 q 245 92 226 106 q 299 79 264 79 q 374 94 335 79 q 444 129 413 110 q 518 179 482 151 l 518 699 l 629 699 l 629 90 q 636 0 631 40 l 526 -11 l 518 76 m 171 899 q 192 952 171 931 q 246 974 214 974 q 302 952 279 974 q 325 899 325 931 q 302 845 325 867 q 246 824 279 824 q 192 845 214 824 q 171 899 171 867 m 408 899 q 430 952 408 931 q 483 974 451 974 q 540 952 517 974 q 563 899 563 931 q 540 845 563 867 q 483 824 517 824 q 430 845 451 824 q 408 899 408 867 z "},"ù":{"ha":731,"x_min":96,"x_max":636,"o":"m 518 76 l 515 76 q 479 51 503 67 q 425 19 456 35 q 358 -7 394 4 q 283 -18 321 -18 q 196 -5 232 -18 q 138 39 160 8 q 106 119 115 69 q 96 244 96 169 l 96 699 l 207 699 l 207 261 q 208 186 207 219 q 218 129 210 153 q 245 92 226 106 q 299 79 264 79 q 374 94 335 79 q 444 129 413 110 q 518 179 482 151 l 518 699 l 629 699 l 629 90 q 636 0 631 40 l 526 -11 l 518 76 m 190 986 l 263 1071 l 501 897 l 454 835 l 190 986 z "},"_":{"ha":776,"x_min":82,"x_max":694,"o":"m 82 -92 l 694 -92 l 694 -175 l 82 -175 l 82 -92 z "},"µ":{"ha":719,"x_min":106,"x_max":646,"o":"m 106 699 l 217 699 l 217 261 q 218 186 217 219 q 228 129 219 153 q 255 92 236 106 q 308 79 274 79 q 383 94 344 79 q 454 129 422 110 q 528 179 492 151 l 528 699 l 639 699 l 639 90 q 646 0 639 51 l 536 -11 l 528 76 l 525 76 q 489 51 513 67 q 435 19 465 35 q 367 -7 404 4 q 293 -18 331 -18 q 247 -13 261 -18 q 217 0 232 -8 l 217 -315 l 106 -315 l 106 699 z "},"v":{"ha":679,"x_min":14,"x_max":667,"o":"m 14 699 l 136 699 l 306 206 l 336 96 l 338 96 l 369 206 l 550 699 l 667 699 l 396 0 l 271 0 l 14 699 z "},"w":{"ha":1042,"x_min":25,"x_max":1024,"o":"m 25 699 l 142 699 l 224 383 q 244 298 235 343 q 261 214 253 253 q 279 124 269 168 l 281 124 q 303 214 290 168 q 326 298 314 253 q 351 383 339 343 l 450 699 l 599 699 l 678 383 q 698 298 688 343 q 715 214 708 253 q 732 124 724 168 l 733 124 q 760 215 746 169 q 785 299 771 254 q 811 383 799 344 l 908 699 l 1024 699 l 794 0 l 671 0 l 571 383 q 548 478 557 436 q 532 550 539 521 q 519 611 525 585 l 517 611 q 503 550 511 585 q 483 478 496 521 q 456 383 471 436 l 338 0 l 214 0 l 25 699 z "},"x":{"ha":714,"x_min":18,"x_max":701,"o":"m 283 367 l 25 699 l 156 699 l 360 440 l 553 699 l 678 699 l 435 371 l 701 0 l 571 0 l 358 296 l 143 0 l 18 0 l 283 367 z "},"y":{"ha":690,"x_min":10,"x_max":679,"o":"m 10 699 l 128 699 l 258 383 q 294 292 278 338 q 322 210 310 246 q 349 126 338 167 l 350 126 q 378 210 363 167 q 407 292 390 246 q 442 383 424 338 l 563 699 l 679 699 l 349 -135 q 298 -224 329 -186 q 238 -286 267 -261 q 165 -336 203 -315 l 111 -240 q 165 -206 140 -226 q 210 -160 188 -187 q 246 -96 232 -133 l 289 18 l 10 699 z "},"ý":{"ha":690,"x_min":10,"x_max":679,"o":"m 10 699 l 128 699 l 258 383 q 294 292 278 338 q 322 210 310 246 q 349 126 338 167 l 350 126 q 378 210 363 167 q 407 292 390 246 q 442 383 424 338 l 563 699 l 679 699 l 349 -135 q 298 -224 329 -186 q 238 -286 267 -261 q 165 -336 203 -315 l 111 -240 q 165 -206 140 -226 q 210 -160 188 -187 q 246 -96 232 -133 l 289 18 l 10 699 m 418 1082 l 490 997 l 226 846 l 179 908 l 418 1082 z "},"ÿ":{"ha":690,"x_min":10,"x_max":679,"o":"m 10 699 l 128 699 l 258 383 q 294 292 278 338 q 322 210 310 246 q 349 126 338 167 l 350 126 q 378 210 363 167 q 407 292 390 246 q 442 383 424 338 l 563 699 l 679 699 l 349 -135 q 298 -224 329 -186 q 238 -286 267 -261 q 165 -336 203 -315 l 111 -240 q 165 -206 140 -226 q 210 -160 188 -187 q 246 -96 232 -133 l 289 18 l 10 699 m 150 913 q 172 966 150 944 q 225 988 193 988 q 281 966 258 988 q 304 913 304 944 q 281 859 304 881 q 225 838 258 838 q 172 859 193 838 q 150 913 150 881 m 388 913 q 409 966 388 944 q 463 988 431 988 q 519 966 496 988 q 542 913 542 944 q 519 859 542 881 q 463 838 496 838 q 409 859 431 838 q 388 913 388 881 z "},"¥":{"ha":854,"x_min":65,"x_max":789,"o":"m 368 149 l 93 149 l 93 246 l 368 246 l 368 358 l 93 358 l 93 456 l 313 456 l 65 947 l 197 947 l 426 494 l 657 947 l 789 947 l 542 456 l 761 456 l 761 358 l 486 358 l 486 246 l 761 246 l 761 149 l 486 149 l 486 0 l 368 0 l 368 149 z "},"z":{"ha":639,"x_min":33,"x_max":589,"o":"m 33 43 l 432 613 q 349 608 374 608 q 294 607 325 607 l 68 607 l 68 699 l 589 699 l 589 650 l 197 88 q 264 91 247 90 q 296 92 281 92 l 588 92 l 588 0 l 33 0 l 33 43 z "},"ž":{"ha":639,"x_min":33,"x_max":589,"o":"m 33 43 l 432 613 q 349 608 374 608 q 294 607 325 607 l 68 607 l 68 699 l 589 699 l 589 650 l 197 88 q 264 91 247 90 q 296 92 281 92 l 588 92 l 588 0 l 33 0 l 33 43 m 86 1024 l 142 1069 l 301 935 l 461 1069 l 517 1024 l 329 833 l 274 833 l 86 1024 z "},"∞":{"ha":1126,"x_min":81,"x_max":1046,"o":"m 583 610 q 619 659 597 635 q 669 703 642 683 q 728 734 696 722 q 794 746 760 746 q 906 721 858 746 q 985 656 954 696 q 1031 568 1015 617 q 1046 471 1046 519 q 1028 359 1046 410 q 978 272 1011 308 q 899 216 946 236 q 794 196 853 196 q 723 208 758 196 q 656 238 688 219 q 598 281 625 257 q 550 331 571 306 q 458 233 514 269 q 332 196 401 196 q 219 221 267 196 q 142 285 172 246 q 96 374 111 325 q 81 471 81 422 q 98 583 81 532 q 148 669 115 633 q 227 726 181 706 q 332 746 274 746 q 404 734 368 746 q 473 703 440 722 q 534 660 506 685 q 583 610 563 635 m 535 511 q 497 553 518 532 q 451 590 476 574 q 397 617 426 607 q 332 628 367 628 q 275 620 303 628 q 226 594 247 613 q 191 546 204 576 q 178 471 178 515 q 191 403 178 432 q 226 353 204 374 q 276 324 249 333 q 332 314 304 314 q 399 328 369 314 q 453 369 429 343 q 498 432 478 396 q 535 511 518 468 m 601 429 q 635 386 615 407 q 678 349 654 365 q 731 324 701 333 q 794 314 760 314 q 851 322 824 314 q 901 347 879 329 q 935 396 922 365 q 949 471 949 426 q 935 539 949 510 q 899 588 921 568 q 850 618 878 608 q 794 628 822 628 q 729 613 757 628 q 678 572 701 599 q 637 509 656 546 q 601 429 618 472 z "},"Þ":{"ha":756,"x_min":122,"x_max":708,"o":"m 239 782 l 354 782 q 622 718 535 782 q 708 503 708 654 q 676 364 708 419 q 597 274 644 308 q 493 226 549 240 q 390 211 438 211 l 239 211 l 239 0 l 122 0 l 122 947 l 239 947 l 239 782 m 239 678 l 239 315 l 381 315 q 466 324 428 315 q 532 355 504 333 q 575 413 560 376 q 590 506 590 450 q 574 595 590 561 q 527 647 558 629 q 449 672 496 665 q 339 678 401 678 l 239 678 z "},"þ":{"ha":749,"x_min":100,"x_max":686,"o":"m 211 -317 l 100 -317 l 100 1040 l 211 1053 l 211 639 q 319 694 265 675 q 407 713 372 713 q 515 690 464 713 q 603 624 565 668 q 664 511 642 579 q 686 350 686 443 q 658 177 686 247 q 581 64 629 107 q 472 1 533 21 q 347 -18 411 -18 q 211 -3 275 -18 l 211 -317 m 394 615 q 321 599 365 615 q 211 539 276 582 l 211 103 q 347 79 283 79 q 454 97 411 79 q 522 150 497 115 q 558 234 547 185 q 568 344 568 283 q 558 442 568 393 q 525 528 547 490 q 470 591 503 567 q 394 615 438 615 z "},"¹":{"ha":374,"x_min":32,"x_max":281,"o":"m 188 853 l 49 822 l 32 886 l 226 947 l 281 947 l 281 438 l 188 438 l 188 853 z "},"²":{"ha":500,"x_min":71,"x_max":424,"o":"m 71 494 q 190 614 138 556 q 234 666 213 639 q 273 719 256 693 q 301 770 290 746 q 311 814 311 794 q 292 864 311 850 q 225 878 274 878 q 179 874 201 878 q 138 866 157 871 q 100 856 118 861 l 76 929 q 119 944 96 938 q 172 955 142 950 q 240 960 203 960 q 303 953 274 960 q 357 931 333 947 q 394 889 381 915 q 408 822 408 863 q 373 717 407 771 q 304 622 339 663 q 200 514 258 568 q 231 517 213 515 q 270 519 246 518 q 328 519 294 519 l 424 519 l 424 438 l 71 438 l 71 494 z "},"³":{"ha":449,"x_min":56,"x_max":378,"o":"m 86 525 q 142 507 119 510 q 182 504 165 504 q 281 586 281 504 q 246 649 281 629 q 135 669 211 669 l 135 736 q 242 760 208 736 q 275 821 275 783 q 260 860 275 844 q 200 878 244 876 q 166 876 182 878 q 119 867 150 875 l 94 943 q 158 957 132 954 q 208 960 183 960 q 273 953 243 960 q 325 931 303 946 q 360 894 347 917 q 372 842 372 872 q 363 788 372 811 q 339 749 353 765 q 308 722 325 732 q 279 707 292 711 l 279 704 q 349 660 319 690 q 378 578 378 629 q 358 504 378 533 q 310 458 339 475 q 247 435 281 442 q 182 428 213 428 q 56 454 111 428 l 86 525 z "},"¼":{"ha":1157,"x_min":47,"x_max":1093,"o":"m 203 853 l 64 822 l 47 886 l 242 947 l 296 947 l 296 438 l 203 438 l 203 853 m 718 1051 l 796 1024 l 385 -104 l 307 -76 l 718 1051 m 779 192 q 903 194 864 194 l 949 194 l 949 271 q 953 408 949 349 l 779 192 m 678 182 l 949 510 l 1042 510 l 1042 194 l 1093 194 l 1093 115 l 1042 115 l 1042 0 l 949 0 l 949 115 l 678 115 l 678 182 z "},"½":{"ha":1132,"x_min":47,"x_max":1064,"o":"m 203 853 l 64 822 l 47 886 l 242 947 l 296 947 l 296 438 l 203 438 l 203 853 m 704 1051 l 782 1024 l 371 -104 l 293 -76 l 704 1051 m 711 58 q 831 178 778 119 q 874 230 853 203 q 913 283 896 257 q 941 334 931 310 q 951 378 951 358 q 933 428 951 414 q 865 442 914 442 q 819 438 842 442 q 778 430 797 435 q 740 419 758 425 l 717 493 q 759 508 736 501 q 813 519 782 514 q 881 524 843 524 q 944 517 914 524 q 997 495 974 511 q 1035 453 1021 479 q 1049 386 1049 426 q 1013 281 1047 335 q 944 186 979 226 q 840 78 899 132 q 871 81 853 79 q 910 83 886 82 q 968 83 935 83 l 1064 83 l 1064 1 l 711 1 l 711 58 z "},"¾":{"ha":1201,"x_min":56,"x_max":1143,"o":"m 768 1051 l 846 1024 l 435 -104 l 357 -76 l 768 1051 m 86 525 q 142 507 119 510 q 182 504 165 504 q 281 586 281 504 q 246 649 281 629 q 135 669 211 669 l 135 736 q 242 760 208 736 q 275 821 275 783 q 260 860 275 844 q 200 878 244 876 q 166 876 182 878 q 119 867 150 875 l 94 943 q 158 957 132 954 q 208 960 183 960 q 273 953 243 960 q 325 931 303 946 q 360 894 347 917 q 372 842 372 872 q 363 788 372 811 q 339 749 353 765 q 308 722 325 732 q 279 707 292 711 l 279 704 q 349 660 319 690 q 378 578 378 629 q 358 504 378 533 q 310 458 339 475 q 247 435 281 442 q 182 428 213 428 q 56 454 111 428 l 86 525 m 829 192 q 953 194 914 194 l 999 194 l 999 271 q 1003 408 999 349 l 829 192 m 728 182 l 999 510 l 1092 510 l 1092 194 l 1143 194 l 1143 115 l 1092 115 l 1092 0 l 999 0 l 999 115 l 728 115 l 728 182 z "},"¤":{"ha":769,"x_min":69,"x_max":700,"o":"m 550 93 q 473 51 515 65 q 386 36 431 36 q 219 94 290 36 l 124 -19 l 69 26 l 169 146 q 122 238 139 186 q 106 347 106 290 q 122 457 106 406 q 169 549 139 508 l 69 668 l 124 714 l 219 600 q 386 660 292 660 q 551 601 478 660 l 646 714 l 700 668 l 600 550 q 649 457 632 508 q 667 347 667 406 q 649 238 667 289 q 599 144 631 186 l 700 26 l 646 -19 l 550 93 m 194 347 q 210 258 194 299 q 251 187 225 217 q 313 140 278 157 q 386 124 347 124 q 460 140 425 124 q 522 187 496 157 q 563 258 547 217 q 578 347 578 299 q 563 438 578 397 q 522 509 547 479 q 460 556 496 539 q 386 572 425 572 q 313 556 347 572 q 251 509 278 539 q 210 438 225 479 q 194 347 194 397 z "},"⁄":{"ha":494,"x_min":3,"x_max":492,"o":"m 414 1051 l 492 1024 l 81 -104 l 3 -76 l 414 1051 z "},"₄":{"ha":525,"x_min":40,"x_max":456,"o":"m 142 192 q 265 194 226 194 l 311 194 l 311 271 q 315 408 311 349 l 142 192 m 40 182 l 311 510 l 404 510 l 404 194 l 456 194 l 456 115 l 404 115 l 404 0 l 311 0 l 311 115 l 40 115 l 40 182 z "},"˛":{"ha":336,"x_min":38,"x_max":296,"o":"m 229 0 q 179 -42 199 -15 q 156 -94 160 -68 q 166 -140 151 -121 q 214 -160 181 -160 q 275 -151 244 -160 l 296 -231 q 204 -244 242 -246 q 106 -219 146 -244 q 52 -156 67 -194 q 52 -76 38 -117 q 118 0 67 -35 l 229 0 z "},"A":{"ha":847,"x_min":26,"x_max":821,"o":"m 351 947 l 496 947 l 821 0 l 700 0 l 617 253 l 232 253 l 147 0 l 26 0 l 351 947 m 579 364 l 426 836 l 422 836 l 268 364 l 579 364 z "},"Æ":{"ha":1203,"x_min":18,"x_max":1136,"o":"m 274 267 l 151 0 l 18 0 l 475 947 l 1122 947 l 1122 840 l 658 840 l 658 538 l 1089 538 l 1089 433 l 658 433 l 658 107 l 1136 107 l 1136 0 l 542 0 l 542 267 l 274 267 m 325 378 l 542 378 l 542 836 l 536 836 l 325 378 z "}}}
